G04 (created by PCBNEW (2013-07-07 BZR 4022)-stable) date 5/22/2015 10:04:36 PM*
%MOIN*%
G04 Gerber Fmt 3.4, Leading zero omitted, Abs format*
%FSLAX34Y34*%
G01*
G70*
G90*
G04 APERTURE LIST*
%ADD10C,0.00590551*%
%ADD11O,0.0885X0.059*%
%ADD12R,0.069X0.1035*%
%ADD13O,0.069X0.1035*%
%ADD14C,0.055*%
%ADD15O,0.059X0.0885*%
%ADD16R,0.06X0.06*%
%ADD17C,0.06*%
%ADD18C,0.056*%
%ADD19R,0.0885X0.059*%
%ADD20R,0.059X0.114*%
%ADD21R,0.114X0.059*%
%ADD22C,0.23622*%
%ADD23R,0.1035X0.069*%
%ADD24O,0.1035X0.069*%
%ADD25R,0.079X0.079*%
%ADD26C,0.079*%
%ADD27C,0.01*%
G04 APERTURE END LIST*
G54D10*
G54D11*
X82102Y-63250D03*
X82897Y-63750D03*
X82102Y-64250D03*
X82102Y-57250D03*
X82897Y-57750D03*
X82102Y-58250D03*
G54D12*
X76500Y-52172D03*
G54D13*
X77500Y-52172D03*
X78500Y-52172D03*
G54D14*
X74250Y-69000D03*
X74250Y-67000D03*
X77250Y-69000D03*
X77250Y-67000D03*
G54D15*
X80000Y-61897D03*
X80000Y-65602D03*
G54D11*
X71397Y-64500D03*
X75102Y-64500D03*
X75102Y-63500D03*
X71397Y-63500D03*
X81397Y-70000D03*
X85102Y-70000D03*
G54D15*
X81000Y-65602D03*
X81000Y-61897D03*
X79000Y-65602D03*
X79000Y-61897D03*
X81000Y-59602D03*
X81000Y-55897D03*
X80000Y-59602D03*
X80000Y-55897D03*
X79000Y-55897D03*
X79000Y-59602D03*
G54D11*
X80897Y-51500D03*
X84602Y-51500D03*
G54D16*
X88000Y-59250D03*
G54D17*
X88000Y-60250D03*
X88000Y-61250D03*
X88000Y-62250D03*
G54D16*
X73250Y-51500D03*
G54D17*
X74250Y-51500D03*
G54D18*
X71750Y-58750D03*
X71750Y-60750D03*
G54D19*
X74397Y-54500D03*
G54D11*
X73102Y-54500D03*
G54D19*
X73647Y-58250D03*
G54D11*
X73647Y-59250D03*
X73647Y-60250D03*
X73647Y-61250D03*
X76352Y-61250D03*
X76352Y-60250D03*
X76352Y-58250D03*
X76352Y-59250D03*
G54D20*
X78000Y-64475D03*
X78000Y-63025D03*
G54D21*
X75725Y-57000D03*
X74275Y-57000D03*
X76775Y-54500D03*
X78225Y-54500D03*
X73975Y-65500D03*
X72525Y-65500D03*
G54D20*
X70000Y-58975D03*
X70000Y-57525D03*
X70000Y-60525D03*
X70000Y-61975D03*
X78000Y-57025D03*
X78000Y-58475D03*
G54D21*
X78225Y-53500D03*
X76775Y-53500D03*
G54D22*
X87500Y-69250D03*
X70500Y-69250D03*
X70500Y-52250D03*
X87500Y-52250D03*
G54D12*
X82750Y-53922D03*
G54D13*
X82750Y-52577D03*
G54D23*
X85422Y-59000D03*
G54D24*
X84077Y-59000D03*
G54D23*
X85422Y-62500D03*
G54D24*
X84077Y-62500D03*
G54D12*
X83250Y-67577D03*
G54D13*
X83250Y-68922D03*
G54D25*
X87000Y-55250D03*
G54D26*
X87000Y-57250D03*
G54D25*
X87000Y-64250D03*
G54D26*
X87000Y-66250D03*
G54D10*
G36*
X88450Y-68317D02*
X88260Y-68127D01*
X88260Y-62581D01*
X88000Y-62320D01*
X87929Y-62391D01*
X87929Y-62250D01*
X87668Y-61989D01*
X87601Y-62022D01*
X87549Y-62177D01*
X87549Y-57330D01*
X87545Y-57236D01*
X87545Y-55615D01*
X87545Y-54825D01*
X87522Y-54770D01*
X87480Y-54727D01*
X87424Y-54705D01*
X87365Y-54704D01*
X86575Y-54704D01*
X86520Y-54727D01*
X86477Y-54769D01*
X86455Y-54825D01*
X86454Y-54884D01*
X86454Y-55674D01*
X86477Y-55729D01*
X86519Y-55772D01*
X86575Y-55794D01*
X86634Y-55795D01*
X87424Y-55795D01*
X87479Y-55772D01*
X87522Y-55730D01*
X87544Y-55674D01*
X87545Y-55615D01*
X87545Y-57236D01*
X87538Y-57114D01*
X87477Y-56965D01*
X87400Y-56920D01*
X87329Y-56991D01*
X87329Y-56849D01*
X87284Y-56772D01*
X87080Y-56700D01*
X86864Y-56711D01*
X86715Y-56772D01*
X86670Y-56849D01*
X87000Y-57179D01*
X87329Y-56849D01*
X87329Y-56991D01*
X87070Y-57250D01*
X87400Y-57579D01*
X87477Y-57534D01*
X87549Y-57330D01*
X87549Y-62177D01*
X87544Y-62192D01*
X87557Y-62370D01*
X87601Y-62477D01*
X87668Y-62510D01*
X87929Y-62250D01*
X87929Y-62391D01*
X87739Y-62581D01*
X87772Y-62648D01*
X87942Y-62705D01*
X88120Y-62692D01*
X88227Y-62648D01*
X88260Y-62581D01*
X88260Y-68127D01*
X88254Y-68122D01*
X87765Y-67919D01*
X87549Y-67918D01*
X87549Y-66330D01*
X87545Y-66236D01*
X87545Y-64615D01*
X87545Y-63825D01*
X87522Y-63770D01*
X87480Y-63727D01*
X87424Y-63705D01*
X87365Y-63704D01*
X87329Y-63704D01*
X87329Y-57650D01*
X87000Y-57320D01*
X86929Y-57391D01*
X86929Y-57250D01*
X86599Y-56920D01*
X86522Y-56965D01*
X86450Y-57169D01*
X86461Y-57385D01*
X86522Y-57534D01*
X86599Y-57579D01*
X86929Y-57250D01*
X86929Y-57391D01*
X86670Y-57650D01*
X86715Y-57727D01*
X86919Y-57799D01*
X87135Y-57788D01*
X87284Y-57727D01*
X87329Y-57650D01*
X87329Y-63704D01*
X86575Y-63704D01*
X86520Y-63727D01*
X86477Y-63769D01*
X86455Y-63825D01*
X86454Y-63884D01*
X86454Y-64674D01*
X86477Y-64729D01*
X86519Y-64772D01*
X86575Y-64794D01*
X86634Y-64795D01*
X87424Y-64795D01*
X87479Y-64772D01*
X87522Y-64730D01*
X87544Y-64674D01*
X87545Y-64615D01*
X87545Y-66236D01*
X87538Y-66114D01*
X87477Y-65965D01*
X87400Y-65920D01*
X87329Y-65991D01*
X87329Y-65849D01*
X87284Y-65772D01*
X87080Y-65700D01*
X86864Y-65711D01*
X86715Y-65772D01*
X86670Y-65849D01*
X87000Y-66179D01*
X87329Y-65849D01*
X87329Y-65991D01*
X87070Y-66250D01*
X87400Y-66579D01*
X87477Y-66534D01*
X87549Y-66330D01*
X87549Y-67918D01*
X87329Y-67918D01*
X87329Y-66650D01*
X87000Y-66320D01*
X86929Y-66391D01*
X86929Y-66250D01*
X86599Y-65920D01*
X86522Y-65965D01*
X86450Y-66169D01*
X86461Y-66385D01*
X86522Y-66534D01*
X86599Y-66579D01*
X86929Y-66250D01*
X86929Y-66391D01*
X86670Y-66650D01*
X86715Y-66727D01*
X86919Y-66799D01*
X87135Y-66788D01*
X87284Y-66727D01*
X87329Y-66650D01*
X87329Y-67918D01*
X87236Y-67918D01*
X86746Y-68120D01*
X86372Y-68495D01*
X86169Y-68984D01*
X86168Y-69513D01*
X86370Y-70003D01*
X86567Y-70200D01*
X86090Y-70200D01*
X86090Y-62815D01*
X86090Y-62125D01*
X86090Y-59315D01*
X86090Y-58625D01*
X86067Y-58570D01*
X86025Y-58527D01*
X85969Y-58505D01*
X85910Y-58504D01*
X84875Y-58504D01*
X84820Y-58527D01*
X84777Y-58569D01*
X84755Y-58625D01*
X84754Y-58684D01*
X84754Y-59374D01*
X84777Y-59429D01*
X84819Y-59472D01*
X84875Y-59494D01*
X84934Y-59495D01*
X85969Y-59495D01*
X86024Y-59472D01*
X86067Y-59430D01*
X86089Y-59374D01*
X86090Y-59315D01*
X86090Y-62125D01*
X86067Y-62070D01*
X86025Y-62027D01*
X85969Y-62005D01*
X85910Y-62004D01*
X84875Y-62004D01*
X84820Y-62027D01*
X84777Y-62069D01*
X84755Y-62125D01*
X84754Y-62184D01*
X84754Y-62874D01*
X84777Y-62929D01*
X84819Y-62972D01*
X84875Y-62994D01*
X84934Y-62995D01*
X85969Y-62995D01*
X86024Y-62972D01*
X86067Y-62930D01*
X86089Y-62874D01*
X86090Y-62815D01*
X86090Y-70200D01*
X85652Y-70200D01*
X85672Y-70170D01*
X85706Y-70000D01*
X85672Y-69829D01*
X85576Y-69685D01*
X85431Y-69588D01*
X85261Y-69555D01*
X84943Y-69555D01*
X84773Y-69588D01*
X84728Y-69618D01*
X84728Y-62626D01*
X84728Y-62373D01*
X84728Y-59126D01*
X84728Y-58873D01*
X84726Y-58856D01*
X84635Y-58685D01*
X84485Y-58561D01*
X84300Y-58505D01*
X84127Y-58505D01*
X84127Y-58950D01*
X84704Y-58950D01*
X84728Y-58873D01*
X84728Y-59126D01*
X84704Y-59050D01*
X84127Y-59050D01*
X84127Y-59495D01*
X84300Y-59495D01*
X84485Y-59438D01*
X84635Y-59314D01*
X84726Y-59143D01*
X84728Y-59126D01*
X84728Y-62373D01*
X84726Y-62356D01*
X84635Y-62185D01*
X84485Y-62061D01*
X84300Y-62005D01*
X84127Y-62005D01*
X84127Y-62450D01*
X84704Y-62450D01*
X84728Y-62373D01*
X84728Y-62626D01*
X84704Y-62550D01*
X84127Y-62550D01*
X84127Y-62995D01*
X84300Y-62995D01*
X84485Y-62938D01*
X84635Y-62814D01*
X84726Y-62643D01*
X84728Y-62626D01*
X84728Y-69618D01*
X84628Y-69685D01*
X84532Y-69829D01*
X84498Y-70000D01*
X84532Y-70170D01*
X84552Y-70200D01*
X84027Y-70200D01*
X84027Y-62995D01*
X84027Y-62550D01*
X84027Y-62450D01*
X84027Y-62005D01*
X84027Y-59495D01*
X84027Y-59050D01*
X84027Y-58950D01*
X84027Y-58505D01*
X83855Y-58505D01*
X83669Y-58561D01*
X83519Y-58685D01*
X83501Y-58719D01*
X83501Y-57750D01*
X83467Y-57579D01*
X83371Y-57435D01*
X83245Y-57350D01*
X83245Y-54410D01*
X83245Y-53375D01*
X83245Y-53375D01*
X83245Y-52800D01*
X83245Y-52627D01*
X83245Y-52527D01*
X83245Y-52355D01*
X83188Y-52169D01*
X83064Y-52019D01*
X82893Y-51928D01*
X82876Y-51926D01*
X82800Y-51950D01*
X82800Y-52527D01*
X83245Y-52527D01*
X83245Y-52627D01*
X82800Y-52627D01*
X82800Y-53204D01*
X82876Y-53228D01*
X82893Y-53226D01*
X83064Y-53135D01*
X83188Y-52985D01*
X83245Y-52800D01*
X83245Y-53375D01*
X83222Y-53320D01*
X83180Y-53277D01*
X83124Y-53255D01*
X83065Y-53254D01*
X82700Y-53254D01*
X82700Y-53204D01*
X82700Y-52627D01*
X82700Y-52527D01*
X82700Y-51950D01*
X82623Y-51926D01*
X82606Y-51928D01*
X82435Y-52019D01*
X82311Y-52169D01*
X82255Y-52355D01*
X82255Y-52527D01*
X82700Y-52527D01*
X82700Y-52627D01*
X82255Y-52627D01*
X82255Y-52800D01*
X82311Y-52985D01*
X82435Y-53135D01*
X82606Y-53226D01*
X82623Y-53228D01*
X82700Y-53204D01*
X82700Y-53254D01*
X82375Y-53254D01*
X82320Y-53277D01*
X82277Y-53319D01*
X82255Y-53375D01*
X82254Y-53434D01*
X82254Y-54469D01*
X82277Y-54524D01*
X82319Y-54567D01*
X82375Y-54589D01*
X82434Y-54590D01*
X83124Y-54590D01*
X83179Y-54567D01*
X83222Y-54525D01*
X83244Y-54469D01*
X83245Y-54410D01*
X83245Y-57350D01*
X83226Y-57338D01*
X83056Y-57305D01*
X82738Y-57305D01*
X82693Y-57313D01*
X82706Y-57250D01*
X82672Y-57079D01*
X82576Y-56935D01*
X82431Y-56838D01*
X82261Y-56805D01*
X81943Y-56805D01*
X81773Y-56838D01*
X81628Y-56935D01*
X81532Y-57079D01*
X81498Y-57250D01*
X81532Y-57420D01*
X81628Y-57564D01*
X81773Y-57661D01*
X81943Y-57695D01*
X82261Y-57695D01*
X82306Y-57686D01*
X82293Y-57750D01*
X82306Y-57813D01*
X82261Y-57805D01*
X81943Y-57805D01*
X81773Y-57838D01*
X81628Y-57935D01*
X81532Y-58079D01*
X81498Y-58250D01*
X81532Y-58420D01*
X81628Y-58564D01*
X81773Y-58661D01*
X81943Y-58695D01*
X82261Y-58695D01*
X82431Y-58661D01*
X82576Y-58564D01*
X82672Y-58420D01*
X82706Y-58250D01*
X82693Y-58186D01*
X82738Y-58195D01*
X83056Y-58195D01*
X83226Y-58161D01*
X83371Y-58064D01*
X83467Y-57920D01*
X83501Y-57750D01*
X83501Y-58719D01*
X83428Y-58856D01*
X83426Y-58873D01*
X83450Y-58950D01*
X84027Y-58950D01*
X84027Y-59050D01*
X83450Y-59050D01*
X83426Y-59126D01*
X83428Y-59143D01*
X83519Y-59314D01*
X83669Y-59438D01*
X83855Y-59495D01*
X84027Y-59495D01*
X84027Y-62005D01*
X83855Y-62005D01*
X83669Y-62061D01*
X83519Y-62185D01*
X83428Y-62356D01*
X83426Y-62373D01*
X83450Y-62450D01*
X84027Y-62450D01*
X84027Y-62550D01*
X83450Y-62550D01*
X83426Y-62626D01*
X83428Y-62643D01*
X83519Y-62814D01*
X83669Y-62938D01*
X83855Y-62995D01*
X84027Y-62995D01*
X84027Y-70200D01*
X83745Y-70200D01*
X83745Y-68065D01*
X83745Y-67030D01*
X83722Y-66975D01*
X83680Y-66932D01*
X83624Y-66910D01*
X83565Y-66909D01*
X83501Y-66909D01*
X83501Y-63750D01*
X83467Y-63579D01*
X83371Y-63435D01*
X83226Y-63338D01*
X83056Y-63305D01*
X82738Y-63305D01*
X82693Y-63313D01*
X82706Y-63250D01*
X82672Y-63079D01*
X82576Y-62935D01*
X82431Y-62838D01*
X82261Y-62805D01*
X81943Y-62805D01*
X81773Y-62838D01*
X81628Y-62935D01*
X81532Y-63079D01*
X81498Y-63250D01*
X81532Y-63420D01*
X81628Y-63564D01*
X81773Y-63661D01*
X81943Y-63695D01*
X82261Y-63695D01*
X82306Y-63686D01*
X82293Y-63750D01*
X82306Y-63813D01*
X82261Y-63805D01*
X81943Y-63805D01*
X81773Y-63838D01*
X81628Y-63935D01*
X81532Y-64079D01*
X81498Y-64250D01*
X81532Y-64420D01*
X81628Y-64564D01*
X81773Y-64661D01*
X81943Y-64695D01*
X82261Y-64695D01*
X82431Y-64661D01*
X82576Y-64564D01*
X82672Y-64420D01*
X82706Y-64250D01*
X82693Y-64186D01*
X82738Y-64195D01*
X83056Y-64195D01*
X83226Y-64161D01*
X83371Y-64064D01*
X83467Y-63920D01*
X83501Y-63750D01*
X83501Y-66909D01*
X82875Y-66909D01*
X82820Y-66932D01*
X82777Y-66974D01*
X82755Y-67030D01*
X82754Y-67089D01*
X82754Y-68124D01*
X82777Y-68179D01*
X82819Y-68222D01*
X82875Y-68244D01*
X82934Y-68245D01*
X83624Y-68245D01*
X83679Y-68222D01*
X83722Y-68180D01*
X83744Y-68124D01*
X83745Y-68065D01*
X83745Y-70200D01*
X83745Y-70200D01*
X83745Y-69145D01*
X83745Y-68972D01*
X83745Y-68872D01*
X83745Y-68700D01*
X83688Y-68514D01*
X83564Y-68364D01*
X83393Y-68273D01*
X83376Y-68271D01*
X83300Y-68295D01*
X83300Y-68872D01*
X83745Y-68872D01*
X83745Y-68972D01*
X83300Y-68972D01*
X83300Y-69549D01*
X83376Y-69573D01*
X83393Y-69571D01*
X83564Y-69480D01*
X83688Y-69330D01*
X83745Y-69145D01*
X83745Y-70200D01*
X83200Y-70200D01*
X83200Y-69549D01*
X83200Y-68972D01*
X83200Y-68872D01*
X83200Y-68295D01*
X83123Y-68271D01*
X83106Y-68273D01*
X82935Y-68364D01*
X82811Y-68514D01*
X82755Y-68700D01*
X82755Y-68872D01*
X83200Y-68872D01*
X83200Y-68972D01*
X82755Y-68972D01*
X82755Y-69145D01*
X82811Y-69330D01*
X82935Y-69480D01*
X83106Y-69571D01*
X83123Y-69573D01*
X83200Y-69549D01*
X83200Y-70200D01*
X81947Y-70200D01*
X81967Y-70170D01*
X82001Y-70000D01*
X81967Y-69829D01*
X81871Y-69685D01*
X81726Y-69588D01*
X81556Y-69555D01*
X81445Y-69555D01*
X81445Y-65761D01*
X81445Y-65443D01*
X81445Y-62056D01*
X81445Y-61738D01*
X81445Y-59761D01*
X81445Y-59443D01*
X81445Y-56056D01*
X81445Y-55738D01*
X81411Y-55568D01*
X81314Y-55423D01*
X81170Y-55327D01*
X81000Y-55293D01*
X80829Y-55327D01*
X80685Y-55423D01*
X80588Y-55568D01*
X80555Y-55738D01*
X80555Y-56056D01*
X80588Y-56226D01*
X80685Y-56371D01*
X80829Y-56467D01*
X81000Y-56501D01*
X81170Y-56467D01*
X81314Y-56371D01*
X81411Y-56226D01*
X81445Y-56056D01*
X81445Y-59443D01*
X81411Y-59273D01*
X81314Y-59128D01*
X81170Y-59032D01*
X81000Y-58998D01*
X80829Y-59032D01*
X80685Y-59128D01*
X80588Y-59273D01*
X80555Y-59443D01*
X80555Y-59761D01*
X80588Y-59931D01*
X80685Y-60076D01*
X80829Y-60172D01*
X81000Y-60206D01*
X81170Y-60172D01*
X81314Y-60076D01*
X81411Y-59931D01*
X81445Y-59761D01*
X81445Y-61738D01*
X81411Y-61568D01*
X81314Y-61423D01*
X81170Y-61327D01*
X81000Y-61293D01*
X80829Y-61327D01*
X80685Y-61423D01*
X80588Y-61568D01*
X80555Y-61738D01*
X80555Y-62056D01*
X80588Y-62226D01*
X80685Y-62371D01*
X80829Y-62467D01*
X81000Y-62501D01*
X81170Y-62467D01*
X81314Y-62371D01*
X81411Y-62226D01*
X81445Y-62056D01*
X81445Y-65443D01*
X81411Y-65273D01*
X81314Y-65128D01*
X81170Y-65032D01*
X81000Y-64998D01*
X80829Y-65032D01*
X80685Y-65128D01*
X80588Y-65273D01*
X80555Y-65443D01*
X80555Y-65761D01*
X80588Y-65931D01*
X80685Y-66076D01*
X80829Y-66172D01*
X81000Y-66206D01*
X81170Y-66172D01*
X81314Y-66076D01*
X81411Y-65931D01*
X81445Y-65761D01*
X81445Y-69555D01*
X81238Y-69555D01*
X81068Y-69588D01*
X80923Y-69685D01*
X80827Y-69829D01*
X80793Y-70000D01*
X80827Y-70170D01*
X80847Y-70200D01*
X80445Y-70200D01*
X80445Y-65761D01*
X80445Y-65443D01*
X80445Y-62056D01*
X80445Y-61738D01*
X80445Y-59761D01*
X80445Y-59443D01*
X80445Y-56056D01*
X80445Y-55738D01*
X80411Y-55568D01*
X80314Y-55423D01*
X80170Y-55327D01*
X80000Y-55293D01*
X79829Y-55327D01*
X79685Y-55423D01*
X79588Y-55568D01*
X79555Y-55738D01*
X79555Y-56056D01*
X79588Y-56226D01*
X79685Y-56371D01*
X79829Y-56467D01*
X80000Y-56501D01*
X80170Y-56467D01*
X80314Y-56371D01*
X80411Y-56226D01*
X80445Y-56056D01*
X80445Y-59443D01*
X80411Y-59273D01*
X80314Y-59128D01*
X80170Y-59032D01*
X80000Y-58998D01*
X79829Y-59032D01*
X79685Y-59128D01*
X79588Y-59273D01*
X79555Y-59443D01*
X79555Y-59761D01*
X79588Y-59931D01*
X79685Y-60076D01*
X79829Y-60172D01*
X80000Y-60206D01*
X80170Y-60172D01*
X80314Y-60076D01*
X80411Y-59931D01*
X80445Y-59761D01*
X80445Y-61738D01*
X80411Y-61568D01*
X80314Y-61423D01*
X80170Y-61327D01*
X80000Y-61293D01*
X79829Y-61327D01*
X79685Y-61423D01*
X79588Y-61568D01*
X79555Y-61738D01*
X79555Y-62056D01*
X79588Y-62226D01*
X79685Y-62371D01*
X79829Y-62467D01*
X80000Y-62501D01*
X80170Y-62467D01*
X80314Y-62371D01*
X80411Y-62226D01*
X80445Y-62056D01*
X80445Y-65443D01*
X80411Y-65273D01*
X80314Y-65128D01*
X80170Y-65032D01*
X80000Y-64998D01*
X79829Y-65032D01*
X79685Y-65128D01*
X79588Y-65273D01*
X79555Y-65443D01*
X79555Y-65761D01*
X79588Y-65931D01*
X79685Y-66076D01*
X79829Y-66172D01*
X80000Y-66206D01*
X80170Y-66172D01*
X80314Y-66076D01*
X80411Y-65931D01*
X80445Y-65761D01*
X80445Y-70200D01*
X79445Y-70200D01*
X79445Y-65761D01*
X79445Y-65443D01*
X79445Y-62056D01*
X79445Y-61738D01*
X79445Y-59761D01*
X79445Y-59443D01*
X79445Y-56056D01*
X79445Y-55738D01*
X79411Y-55568D01*
X79314Y-55423D01*
X79170Y-55327D01*
X79000Y-55293D01*
X78995Y-55294D01*
X78995Y-52358D01*
X78995Y-51986D01*
X78957Y-51797D01*
X78850Y-51636D01*
X78689Y-51529D01*
X78500Y-51491D01*
X78310Y-51529D01*
X78149Y-51636D01*
X78042Y-51797D01*
X78005Y-51986D01*
X78005Y-52358D01*
X78042Y-52547D01*
X78149Y-52708D01*
X78310Y-52815D01*
X78500Y-52853D01*
X78689Y-52815D01*
X78850Y-52708D01*
X78957Y-52547D01*
X78995Y-52358D01*
X78995Y-55294D01*
X78945Y-55304D01*
X78945Y-54765D01*
X78945Y-54234D01*
X78945Y-53765D01*
X78945Y-53175D01*
X78922Y-53120D01*
X78880Y-53077D01*
X78824Y-53055D01*
X78765Y-53054D01*
X77995Y-53054D01*
X77995Y-52395D01*
X77995Y-52222D01*
X77995Y-52122D01*
X77995Y-51950D01*
X77938Y-51764D01*
X77814Y-51614D01*
X77643Y-51523D01*
X77626Y-51521D01*
X77550Y-51545D01*
X77550Y-52122D01*
X77995Y-52122D01*
X77995Y-52222D01*
X77550Y-52222D01*
X77550Y-52799D01*
X77626Y-52823D01*
X77643Y-52821D01*
X77814Y-52730D01*
X77938Y-52580D01*
X77995Y-52395D01*
X77995Y-53054D01*
X77625Y-53054D01*
X77570Y-53077D01*
X77527Y-53119D01*
X77505Y-53175D01*
X77504Y-53234D01*
X77504Y-53824D01*
X77527Y-53879D01*
X77569Y-53922D01*
X77625Y-53944D01*
X77684Y-53945D01*
X78824Y-53945D01*
X78879Y-53922D01*
X78922Y-53880D01*
X78944Y-53824D01*
X78945Y-53765D01*
X78945Y-54234D01*
X78944Y-54175D01*
X78922Y-54119D01*
X78879Y-54077D01*
X78824Y-54054D01*
X78312Y-54055D01*
X78275Y-54092D01*
X78275Y-54450D01*
X78907Y-54450D01*
X78945Y-54412D01*
X78945Y-54234D01*
X78945Y-54765D01*
X78945Y-54587D01*
X78907Y-54550D01*
X78275Y-54550D01*
X78275Y-54907D01*
X78312Y-54945D01*
X78824Y-54945D01*
X78879Y-54922D01*
X78922Y-54880D01*
X78944Y-54824D01*
X78945Y-54765D01*
X78945Y-55304D01*
X78829Y-55327D01*
X78685Y-55423D01*
X78588Y-55568D01*
X78555Y-55738D01*
X78555Y-56056D01*
X78588Y-56226D01*
X78685Y-56371D01*
X78829Y-56467D01*
X79000Y-56501D01*
X79170Y-56467D01*
X79314Y-56371D01*
X79411Y-56226D01*
X79445Y-56056D01*
X79445Y-59443D01*
X79411Y-59273D01*
X79314Y-59128D01*
X79170Y-59032D01*
X79000Y-58998D01*
X78829Y-59032D01*
X78685Y-59128D01*
X78588Y-59273D01*
X78555Y-59443D01*
X78555Y-59761D01*
X78588Y-59931D01*
X78685Y-60076D01*
X78829Y-60172D01*
X79000Y-60206D01*
X79170Y-60172D01*
X79314Y-60076D01*
X79411Y-59931D01*
X79445Y-59761D01*
X79445Y-61738D01*
X79411Y-61568D01*
X79314Y-61423D01*
X79170Y-61327D01*
X79000Y-61293D01*
X78829Y-61327D01*
X78685Y-61423D01*
X78588Y-61568D01*
X78555Y-61738D01*
X78555Y-62056D01*
X78588Y-62226D01*
X78685Y-62371D01*
X78829Y-62467D01*
X79000Y-62501D01*
X79170Y-62467D01*
X79314Y-62371D01*
X79411Y-62226D01*
X79445Y-62056D01*
X79445Y-65443D01*
X79411Y-65273D01*
X79314Y-65128D01*
X79170Y-65032D01*
X79000Y-64998D01*
X78829Y-65032D01*
X78685Y-65128D01*
X78588Y-65273D01*
X78555Y-65443D01*
X78555Y-65761D01*
X78588Y-65931D01*
X78685Y-66076D01*
X78829Y-66172D01*
X79000Y-66206D01*
X79170Y-66172D01*
X79314Y-66076D01*
X79411Y-65931D01*
X79445Y-65761D01*
X79445Y-70200D01*
X78445Y-70200D01*
X78445Y-65015D01*
X78445Y-63875D01*
X78445Y-63624D01*
X78445Y-62425D01*
X78445Y-59074D01*
X78445Y-57875D01*
X78445Y-57565D01*
X78445Y-56425D01*
X78422Y-56370D01*
X78380Y-56327D01*
X78324Y-56305D01*
X78265Y-56304D01*
X78175Y-56304D01*
X78175Y-54907D01*
X78175Y-54550D01*
X78175Y-54450D01*
X78175Y-54092D01*
X78137Y-54055D01*
X77625Y-54054D01*
X77570Y-54077D01*
X77527Y-54119D01*
X77505Y-54175D01*
X77504Y-54234D01*
X77505Y-54412D01*
X77542Y-54450D01*
X78175Y-54450D01*
X78175Y-54550D01*
X77542Y-54550D01*
X77505Y-54587D01*
X77504Y-54765D01*
X77505Y-54824D01*
X77527Y-54880D01*
X77570Y-54922D01*
X77625Y-54945D01*
X78137Y-54945D01*
X78175Y-54907D01*
X78175Y-56304D01*
X77675Y-56304D01*
X77620Y-56327D01*
X77577Y-56369D01*
X77555Y-56425D01*
X77554Y-56484D01*
X77554Y-57624D01*
X77577Y-57679D01*
X77619Y-57722D01*
X77675Y-57744D01*
X77734Y-57745D01*
X78324Y-57745D01*
X78379Y-57722D01*
X78422Y-57680D01*
X78444Y-57624D01*
X78445Y-57565D01*
X78445Y-57875D01*
X78422Y-57820D01*
X78380Y-57777D01*
X78324Y-57755D01*
X78265Y-57754D01*
X78087Y-57755D01*
X78050Y-57792D01*
X78050Y-58425D01*
X78407Y-58425D01*
X78445Y-58387D01*
X78445Y-57875D01*
X78445Y-59074D01*
X78445Y-58562D01*
X78407Y-58525D01*
X78050Y-58525D01*
X78050Y-59157D01*
X78087Y-59195D01*
X78265Y-59195D01*
X78324Y-59194D01*
X78380Y-59172D01*
X78422Y-59129D01*
X78445Y-59074D01*
X78445Y-62425D01*
X78422Y-62370D01*
X78380Y-62327D01*
X78324Y-62305D01*
X78265Y-62304D01*
X78087Y-62305D01*
X78050Y-62342D01*
X78050Y-62975D01*
X78407Y-62975D01*
X78445Y-62937D01*
X78445Y-62425D01*
X78445Y-63624D01*
X78445Y-63112D01*
X78407Y-63075D01*
X78050Y-63075D01*
X78050Y-63707D01*
X78087Y-63745D01*
X78265Y-63745D01*
X78324Y-63744D01*
X78380Y-63722D01*
X78422Y-63679D01*
X78445Y-63624D01*
X78445Y-63875D01*
X78422Y-63820D01*
X78380Y-63777D01*
X78324Y-63755D01*
X78265Y-63754D01*
X77950Y-63754D01*
X77950Y-63707D01*
X77950Y-63075D01*
X77950Y-62975D01*
X77950Y-62342D01*
X77950Y-59157D01*
X77950Y-58525D01*
X77950Y-58425D01*
X77950Y-57792D01*
X77912Y-57755D01*
X77734Y-57754D01*
X77675Y-57755D01*
X77619Y-57777D01*
X77577Y-57820D01*
X77554Y-57875D01*
X77555Y-58387D01*
X77592Y-58425D01*
X77950Y-58425D01*
X77950Y-58525D01*
X77592Y-58525D01*
X77555Y-58562D01*
X77554Y-59074D01*
X77577Y-59129D01*
X77619Y-59172D01*
X77675Y-59194D01*
X77734Y-59195D01*
X77912Y-59195D01*
X77950Y-59157D01*
X77950Y-62342D01*
X77912Y-62305D01*
X77734Y-62304D01*
X77675Y-62305D01*
X77619Y-62327D01*
X77577Y-62370D01*
X77554Y-62425D01*
X77555Y-62937D01*
X77592Y-62975D01*
X77950Y-62975D01*
X77950Y-63075D01*
X77592Y-63075D01*
X77555Y-63112D01*
X77554Y-63624D01*
X77577Y-63679D01*
X77619Y-63722D01*
X77675Y-63744D01*
X77734Y-63745D01*
X77912Y-63745D01*
X77950Y-63707D01*
X77950Y-63754D01*
X77675Y-63754D01*
X77620Y-63777D01*
X77577Y-63819D01*
X77555Y-63875D01*
X77554Y-63934D01*
X77554Y-65074D01*
X77577Y-65129D01*
X77619Y-65172D01*
X77675Y-65194D01*
X77734Y-65195D01*
X78324Y-65195D01*
X78379Y-65172D01*
X78422Y-65130D01*
X78444Y-65074D01*
X78445Y-65015D01*
X78445Y-70200D01*
X77680Y-70200D01*
X77680Y-69051D01*
X77675Y-68984D01*
X77675Y-66915D01*
X77610Y-66759D01*
X77495Y-66643D01*
X77495Y-54765D01*
X77495Y-54175D01*
X77495Y-53765D01*
X77495Y-53234D01*
X77494Y-53175D01*
X77472Y-53119D01*
X77450Y-53097D01*
X77450Y-52799D01*
X77450Y-52222D01*
X77450Y-52122D01*
X77450Y-51545D01*
X77373Y-51521D01*
X77356Y-51523D01*
X77185Y-51614D01*
X77061Y-51764D01*
X77005Y-51950D01*
X77005Y-52122D01*
X77450Y-52122D01*
X77450Y-52222D01*
X77005Y-52222D01*
X77005Y-52395D01*
X77061Y-52580D01*
X77185Y-52730D01*
X77356Y-52821D01*
X77373Y-52823D01*
X77450Y-52799D01*
X77450Y-53097D01*
X77429Y-53077D01*
X77374Y-53054D01*
X76995Y-53054D01*
X76995Y-52660D01*
X76995Y-51625D01*
X76972Y-51570D01*
X76930Y-51527D01*
X76874Y-51505D01*
X76815Y-51504D01*
X76125Y-51504D01*
X76070Y-51527D01*
X76027Y-51569D01*
X76005Y-51625D01*
X76004Y-51684D01*
X76004Y-52719D01*
X76027Y-52774D01*
X76069Y-52817D01*
X76125Y-52839D01*
X76184Y-52840D01*
X76874Y-52840D01*
X76929Y-52817D01*
X76972Y-52775D01*
X76994Y-52719D01*
X76995Y-52660D01*
X76995Y-53054D01*
X76862Y-53055D01*
X76825Y-53092D01*
X76825Y-53450D01*
X77457Y-53450D01*
X77495Y-53412D01*
X77495Y-53234D01*
X77495Y-53765D01*
X77495Y-53587D01*
X77457Y-53550D01*
X76825Y-53550D01*
X76825Y-53907D01*
X76862Y-53945D01*
X77374Y-53945D01*
X77429Y-53922D01*
X77472Y-53880D01*
X77494Y-53824D01*
X77495Y-53765D01*
X77495Y-54175D01*
X77472Y-54120D01*
X77430Y-54077D01*
X77374Y-54055D01*
X77315Y-54054D01*
X76725Y-54054D01*
X76725Y-53907D01*
X76725Y-53550D01*
X76725Y-53450D01*
X76725Y-53092D01*
X76687Y-53055D01*
X76175Y-53054D01*
X76120Y-53077D01*
X76077Y-53119D01*
X76055Y-53175D01*
X76054Y-53234D01*
X76055Y-53412D01*
X76092Y-53450D01*
X76725Y-53450D01*
X76725Y-53550D01*
X76092Y-53550D01*
X76055Y-53587D01*
X76054Y-53765D01*
X76055Y-53824D01*
X76077Y-53880D01*
X76120Y-53922D01*
X76175Y-53945D01*
X76687Y-53945D01*
X76725Y-53907D01*
X76725Y-54054D01*
X76175Y-54054D01*
X76120Y-54077D01*
X76077Y-54119D01*
X76055Y-54175D01*
X76054Y-54234D01*
X76054Y-54824D01*
X76077Y-54879D01*
X76119Y-54922D01*
X76175Y-54944D01*
X76234Y-54945D01*
X77374Y-54945D01*
X77429Y-54922D01*
X77472Y-54880D01*
X77494Y-54824D01*
X77495Y-54765D01*
X77495Y-66643D01*
X77491Y-66639D01*
X77334Y-66575D01*
X77165Y-66574D01*
X77009Y-66639D01*
X76956Y-66692D01*
X76956Y-61250D01*
X76956Y-60250D01*
X76956Y-59250D01*
X76956Y-58250D01*
X76922Y-58079D01*
X76826Y-57935D01*
X76681Y-57838D01*
X76511Y-57805D01*
X76445Y-57805D01*
X76445Y-57265D01*
X76445Y-56675D01*
X76422Y-56620D01*
X76380Y-56577D01*
X76324Y-56555D01*
X76265Y-56554D01*
X75125Y-56554D01*
X75070Y-56577D01*
X75027Y-56619D01*
X75005Y-56675D01*
X75004Y-56734D01*
X75004Y-57324D01*
X75027Y-57379D01*
X75069Y-57422D01*
X75125Y-57444D01*
X75184Y-57445D01*
X76324Y-57445D01*
X76379Y-57422D01*
X76422Y-57380D01*
X76444Y-57324D01*
X76445Y-57265D01*
X76445Y-57805D01*
X76193Y-57805D01*
X76023Y-57838D01*
X75878Y-57935D01*
X75782Y-58079D01*
X75748Y-58250D01*
X75782Y-58420D01*
X75878Y-58564D01*
X76023Y-58661D01*
X76193Y-58695D01*
X76511Y-58695D01*
X76681Y-58661D01*
X76826Y-58564D01*
X76922Y-58420D01*
X76956Y-58250D01*
X76956Y-59250D01*
X76922Y-59079D01*
X76826Y-58935D01*
X76681Y-58838D01*
X76511Y-58805D01*
X76193Y-58805D01*
X76023Y-58838D01*
X75878Y-58935D01*
X75782Y-59079D01*
X75748Y-59250D01*
X75782Y-59420D01*
X75878Y-59564D01*
X76023Y-59661D01*
X76193Y-59695D01*
X76511Y-59695D01*
X76681Y-59661D01*
X76826Y-59564D01*
X76922Y-59420D01*
X76956Y-59250D01*
X76956Y-60250D01*
X76922Y-60079D01*
X76826Y-59935D01*
X76681Y-59838D01*
X76511Y-59805D01*
X76193Y-59805D01*
X76023Y-59838D01*
X75878Y-59935D01*
X75782Y-60079D01*
X75748Y-60250D01*
X75782Y-60420D01*
X75878Y-60564D01*
X76023Y-60661D01*
X76193Y-60695D01*
X76511Y-60695D01*
X76681Y-60661D01*
X76826Y-60564D01*
X76922Y-60420D01*
X76956Y-60250D01*
X76956Y-61250D01*
X76922Y-61079D01*
X76826Y-60935D01*
X76681Y-60838D01*
X76511Y-60805D01*
X76193Y-60805D01*
X76023Y-60838D01*
X75878Y-60935D01*
X75782Y-61079D01*
X75748Y-61250D01*
X75782Y-61420D01*
X75878Y-61564D01*
X76023Y-61661D01*
X76193Y-61695D01*
X76511Y-61695D01*
X76681Y-61661D01*
X76826Y-61564D01*
X76922Y-61420D01*
X76956Y-61250D01*
X76956Y-66692D01*
X76889Y-66758D01*
X76825Y-66915D01*
X76824Y-67084D01*
X76889Y-67240D01*
X77008Y-67360D01*
X77165Y-67424D01*
X77334Y-67425D01*
X77490Y-67360D01*
X77610Y-67241D01*
X77674Y-67084D01*
X77675Y-66915D01*
X77675Y-68984D01*
X77667Y-68883D01*
X77627Y-68787D01*
X77563Y-68757D01*
X77492Y-68828D01*
X77492Y-68686D01*
X77462Y-68622D01*
X77301Y-68569D01*
X77133Y-68582D01*
X77037Y-68622D01*
X77007Y-68686D01*
X77250Y-68929D01*
X77492Y-68686D01*
X77492Y-68828D01*
X77320Y-69000D01*
X77563Y-69242D01*
X77627Y-69212D01*
X77680Y-69051D01*
X77680Y-70200D01*
X77492Y-70200D01*
X77492Y-69313D01*
X77250Y-69070D01*
X77179Y-69141D01*
X77179Y-69000D01*
X76936Y-68757D01*
X76872Y-68787D01*
X76819Y-68948D01*
X76832Y-69116D01*
X76872Y-69212D01*
X76936Y-69242D01*
X77179Y-69000D01*
X77179Y-69141D01*
X77007Y-69313D01*
X77037Y-69377D01*
X77198Y-69430D01*
X77366Y-69417D01*
X77462Y-69377D01*
X77492Y-69313D01*
X77492Y-70200D01*
X75706Y-70200D01*
X75706Y-64500D01*
X75706Y-63500D01*
X75672Y-63329D01*
X75576Y-63185D01*
X75431Y-63088D01*
X75261Y-63055D01*
X74995Y-63055D01*
X74995Y-57265D01*
X74995Y-56734D01*
X74994Y-56675D01*
X74990Y-56663D01*
X74990Y-54765D01*
X74990Y-54175D01*
X74967Y-54120D01*
X74925Y-54077D01*
X74869Y-54055D01*
X74810Y-54054D01*
X74510Y-54054D01*
X74510Y-51831D01*
X74250Y-51570D01*
X73989Y-51831D01*
X74022Y-51898D01*
X74192Y-51955D01*
X74370Y-51942D01*
X74477Y-51898D01*
X74510Y-51831D01*
X74510Y-54054D01*
X73925Y-54054D01*
X73870Y-54077D01*
X73827Y-54119D01*
X73805Y-54175D01*
X73804Y-54234D01*
X73804Y-54824D01*
X73827Y-54879D01*
X73869Y-54922D01*
X73925Y-54944D01*
X73984Y-54945D01*
X74869Y-54945D01*
X74924Y-54922D01*
X74967Y-54880D01*
X74989Y-54824D01*
X74990Y-54765D01*
X74990Y-56663D01*
X74972Y-56619D01*
X74929Y-56577D01*
X74874Y-56554D01*
X74362Y-56555D01*
X74325Y-56592D01*
X74325Y-56950D01*
X74957Y-56950D01*
X74995Y-56912D01*
X74995Y-56734D01*
X74995Y-57265D01*
X74995Y-57087D01*
X74957Y-57050D01*
X74325Y-57050D01*
X74325Y-57407D01*
X74362Y-57445D01*
X74874Y-57445D01*
X74929Y-57422D01*
X74972Y-57380D01*
X74994Y-57324D01*
X74995Y-57265D01*
X74995Y-63055D01*
X74943Y-63055D01*
X74773Y-63088D01*
X74628Y-63185D01*
X74532Y-63329D01*
X74498Y-63500D01*
X74532Y-63670D01*
X74628Y-63814D01*
X74773Y-63911D01*
X74943Y-63945D01*
X75261Y-63945D01*
X75431Y-63911D01*
X75576Y-63814D01*
X75672Y-63670D01*
X75706Y-63500D01*
X75706Y-64500D01*
X75672Y-64329D01*
X75576Y-64185D01*
X75431Y-64088D01*
X75261Y-64055D01*
X74943Y-64055D01*
X74773Y-64088D01*
X74628Y-64185D01*
X74532Y-64329D01*
X74498Y-64500D01*
X74532Y-64670D01*
X74628Y-64814D01*
X74773Y-64911D01*
X74943Y-64945D01*
X75261Y-64945D01*
X75431Y-64911D01*
X75576Y-64814D01*
X75672Y-64670D01*
X75706Y-64500D01*
X75706Y-70200D01*
X74695Y-70200D01*
X74695Y-65765D01*
X74695Y-65175D01*
X74672Y-65120D01*
X74630Y-65077D01*
X74574Y-65055D01*
X74515Y-65054D01*
X74251Y-65054D01*
X74251Y-60250D01*
X74251Y-59250D01*
X74240Y-59191D01*
X74240Y-58515D01*
X74240Y-57925D01*
X74225Y-57888D01*
X74225Y-57407D01*
X74225Y-57050D01*
X74225Y-56950D01*
X74225Y-56592D01*
X74187Y-56555D01*
X73678Y-56554D01*
X73678Y-54618D01*
X73678Y-54381D01*
X73600Y-54220D01*
X73466Y-54108D01*
X73300Y-54055D01*
X73152Y-54055D01*
X73152Y-54450D01*
X73654Y-54450D01*
X73678Y-54381D01*
X73678Y-54618D01*
X73654Y-54550D01*
X73152Y-54550D01*
X73152Y-54945D01*
X73300Y-54945D01*
X73466Y-54891D01*
X73600Y-54779D01*
X73678Y-54618D01*
X73678Y-56554D01*
X73675Y-56554D01*
X73620Y-56577D01*
X73577Y-56619D01*
X73555Y-56675D01*
X73554Y-56734D01*
X73555Y-56912D01*
X73592Y-56950D01*
X74225Y-56950D01*
X74225Y-57050D01*
X73592Y-57050D01*
X73555Y-57087D01*
X73554Y-57265D01*
X73555Y-57324D01*
X73577Y-57380D01*
X73620Y-57422D01*
X73675Y-57445D01*
X74187Y-57445D01*
X74225Y-57407D01*
X74225Y-57888D01*
X74217Y-57870D01*
X74175Y-57827D01*
X74119Y-57805D01*
X74060Y-57804D01*
X73175Y-57804D01*
X73120Y-57827D01*
X73077Y-57869D01*
X73055Y-57925D01*
X73054Y-57984D01*
X73054Y-58574D01*
X73077Y-58629D01*
X73119Y-58672D01*
X73175Y-58694D01*
X73234Y-58695D01*
X74119Y-58695D01*
X74174Y-58672D01*
X74217Y-58630D01*
X74239Y-58574D01*
X74240Y-58515D01*
X74240Y-59191D01*
X74217Y-59079D01*
X74121Y-58935D01*
X73976Y-58838D01*
X73806Y-58805D01*
X73488Y-58805D01*
X73318Y-58838D01*
X73173Y-58935D01*
X73077Y-59079D01*
X73052Y-59204D01*
X73052Y-54945D01*
X73052Y-54550D01*
X73052Y-54450D01*
X73052Y-54055D01*
X72905Y-54055D01*
X72738Y-54108D01*
X72604Y-54220D01*
X72526Y-54381D01*
X72550Y-54450D01*
X73052Y-54450D01*
X73052Y-54550D01*
X72550Y-54550D01*
X72526Y-54618D01*
X72604Y-54779D01*
X72738Y-54891D01*
X72905Y-54945D01*
X73052Y-54945D01*
X73052Y-59204D01*
X73043Y-59250D01*
X73077Y-59420D01*
X73173Y-59564D01*
X73318Y-59661D01*
X73488Y-59695D01*
X73806Y-59695D01*
X73976Y-59661D01*
X74121Y-59564D01*
X74217Y-59420D01*
X74251Y-59250D01*
X74251Y-60250D01*
X74217Y-60079D01*
X74121Y-59935D01*
X73976Y-59838D01*
X73806Y-59805D01*
X73488Y-59805D01*
X73318Y-59838D01*
X73173Y-59935D01*
X73077Y-60079D01*
X73043Y-60250D01*
X73077Y-60420D01*
X73173Y-60564D01*
X73318Y-60661D01*
X73488Y-60695D01*
X73806Y-60695D01*
X73976Y-60661D01*
X74121Y-60564D01*
X74217Y-60420D01*
X74251Y-60250D01*
X74251Y-65054D01*
X74223Y-65054D01*
X74223Y-61368D01*
X74223Y-61131D01*
X74145Y-60970D01*
X74011Y-60858D01*
X73845Y-60805D01*
X73697Y-60805D01*
X73697Y-61200D01*
X74199Y-61200D01*
X74223Y-61131D01*
X74223Y-61368D01*
X74199Y-61300D01*
X73697Y-61300D01*
X73697Y-61695D01*
X73845Y-61695D01*
X74011Y-61641D01*
X74145Y-61529D01*
X74223Y-61368D01*
X74223Y-65054D01*
X73597Y-65054D01*
X73597Y-61695D01*
X73597Y-61300D01*
X73597Y-61200D01*
X73597Y-60805D01*
X73450Y-60805D01*
X73283Y-60858D01*
X73149Y-60970D01*
X73071Y-61131D01*
X73095Y-61200D01*
X73597Y-61200D01*
X73597Y-61300D01*
X73095Y-61300D01*
X73071Y-61368D01*
X73149Y-61529D01*
X73283Y-61641D01*
X73450Y-61695D01*
X73597Y-61695D01*
X73597Y-65054D01*
X73375Y-65054D01*
X73320Y-65077D01*
X73277Y-65119D01*
X73255Y-65175D01*
X73254Y-65234D01*
X73254Y-65824D01*
X73277Y-65879D01*
X73319Y-65922D01*
X73375Y-65944D01*
X73434Y-65945D01*
X74574Y-65945D01*
X74629Y-65922D01*
X74672Y-65880D01*
X74694Y-65824D01*
X74695Y-65765D01*
X74695Y-70200D01*
X74680Y-70200D01*
X74680Y-69051D01*
X74675Y-68984D01*
X74675Y-66915D01*
X74610Y-66759D01*
X74491Y-66639D01*
X74334Y-66575D01*
X74165Y-66574D01*
X74009Y-66639D01*
X73889Y-66758D01*
X73825Y-66915D01*
X73824Y-67084D01*
X73889Y-67240D01*
X74008Y-67360D01*
X74165Y-67424D01*
X74334Y-67425D01*
X74490Y-67360D01*
X74610Y-67241D01*
X74674Y-67084D01*
X74675Y-66915D01*
X74675Y-68984D01*
X74667Y-68883D01*
X74627Y-68787D01*
X74563Y-68757D01*
X74492Y-68828D01*
X74492Y-68686D01*
X74462Y-68622D01*
X74301Y-68569D01*
X74133Y-68582D01*
X74037Y-68622D01*
X74007Y-68686D01*
X74250Y-68929D01*
X74492Y-68686D01*
X74492Y-68828D01*
X74320Y-69000D01*
X74563Y-69242D01*
X74627Y-69212D01*
X74680Y-69051D01*
X74680Y-70200D01*
X74492Y-70200D01*
X74492Y-69313D01*
X74250Y-69070D01*
X74179Y-69141D01*
X74179Y-69000D01*
X73936Y-68757D01*
X73872Y-68787D01*
X73819Y-68948D01*
X73832Y-69116D01*
X73872Y-69212D01*
X73936Y-69242D01*
X74179Y-69000D01*
X74179Y-69141D01*
X74007Y-69313D01*
X74037Y-69377D01*
X74198Y-69430D01*
X74366Y-69417D01*
X74462Y-69377D01*
X74492Y-69313D01*
X74492Y-70200D01*
X73245Y-70200D01*
X73245Y-65765D01*
X73245Y-65234D01*
X73244Y-65175D01*
X73222Y-65119D01*
X73179Y-65077D01*
X73124Y-65054D01*
X72612Y-65055D01*
X72575Y-65092D01*
X72575Y-65450D01*
X73207Y-65450D01*
X73245Y-65412D01*
X73245Y-65234D01*
X73245Y-65765D01*
X73245Y-65587D01*
X73207Y-65550D01*
X72575Y-65550D01*
X72575Y-65907D01*
X72612Y-65945D01*
X73124Y-65945D01*
X73179Y-65922D01*
X73222Y-65880D01*
X73244Y-65824D01*
X73245Y-65765D01*
X73245Y-70200D01*
X72475Y-70200D01*
X72475Y-65907D01*
X72475Y-65550D01*
X72475Y-65450D01*
X72475Y-65092D01*
X72437Y-65055D01*
X72180Y-65054D01*
X72180Y-60664D01*
X72180Y-58664D01*
X72114Y-58506D01*
X71993Y-58385D01*
X71835Y-58320D01*
X71664Y-58319D01*
X71506Y-58385D01*
X71385Y-58506D01*
X71320Y-58664D01*
X71319Y-58835D01*
X71385Y-58993D01*
X71506Y-59114D01*
X71664Y-59179D01*
X71835Y-59180D01*
X71993Y-59114D01*
X72114Y-58993D01*
X72179Y-58835D01*
X72180Y-58664D01*
X72180Y-60664D01*
X72114Y-60506D01*
X71993Y-60385D01*
X71835Y-60320D01*
X71664Y-60319D01*
X71506Y-60385D01*
X71385Y-60506D01*
X71320Y-60664D01*
X71319Y-60835D01*
X71385Y-60993D01*
X71506Y-61114D01*
X71664Y-61179D01*
X71835Y-61180D01*
X71993Y-61114D01*
X72114Y-60993D01*
X72179Y-60835D01*
X72180Y-60664D01*
X72180Y-65054D01*
X72001Y-65054D01*
X72001Y-64500D01*
X72001Y-63500D01*
X71967Y-63329D01*
X71871Y-63185D01*
X71726Y-63088D01*
X71556Y-63055D01*
X71238Y-63055D01*
X71068Y-63088D01*
X70923Y-63185D01*
X70827Y-63329D01*
X70793Y-63500D01*
X70827Y-63670D01*
X70923Y-63814D01*
X71068Y-63911D01*
X71238Y-63945D01*
X71556Y-63945D01*
X71726Y-63911D01*
X71871Y-63814D01*
X71967Y-63670D01*
X72001Y-63500D01*
X72001Y-64500D01*
X71967Y-64329D01*
X71871Y-64185D01*
X71726Y-64088D01*
X71556Y-64055D01*
X71238Y-64055D01*
X71068Y-64088D01*
X70923Y-64185D01*
X70827Y-64329D01*
X70793Y-64500D01*
X70827Y-64670D01*
X70923Y-64814D01*
X71068Y-64911D01*
X71238Y-64945D01*
X71556Y-64945D01*
X71726Y-64911D01*
X71871Y-64814D01*
X71967Y-64670D01*
X72001Y-64500D01*
X72001Y-65054D01*
X71925Y-65054D01*
X71870Y-65077D01*
X71827Y-65119D01*
X71805Y-65175D01*
X71804Y-65234D01*
X71805Y-65412D01*
X71842Y-65450D01*
X72475Y-65450D01*
X72475Y-65550D01*
X71842Y-65550D01*
X71805Y-65587D01*
X71804Y-65765D01*
X71805Y-65824D01*
X71827Y-65880D01*
X71870Y-65922D01*
X71925Y-65945D01*
X72437Y-65945D01*
X72475Y-65907D01*
X72475Y-70200D01*
X71432Y-70200D01*
X71627Y-70004D01*
X71830Y-69515D01*
X71831Y-68986D01*
X71629Y-68496D01*
X71254Y-68122D01*
X70765Y-67919D01*
X70445Y-67918D01*
X70445Y-62574D01*
X70445Y-61375D01*
X70445Y-61065D01*
X70445Y-59925D01*
X70445Y-59515D01*
X70445Y-58375D01*
X70445Y-58124D01*
X70445Y-56925D01*
X70422Y-56870D01*
X70380Y-56827D01*
X70324Y-56805D01*
X70265Y-56804D01*
X70087Y-56805D01*
X70050Y-56842D01*
X70050Y-57475D01*
X70407Y-57475D01*
X70445Y-57437D01*
X70445Y-56925D01*
X70445Y-58124D01*
X70445Y-57612D01*
X70407Y-57575D01*
X70050Y-57575D01*
X70050Y-58207D01*
X70087Y-58245D01*
X70265Y-58245D01*
X70324Y-58244D01*
X70380Y-58222D01*
X70422Y-58179D01*
X70445Y-58124D01*
X70445Y-58375D01*
X70422Y-58320D01*
X70380Y-58277D01*
X70324Y-58255D01*
X70265Y-58254D01*
X69950Y-58254D01*
X69950Y-58207D01*
X69950Y-57575D01*
X69950Y-57475D01*
X69950Y-56842D01*
X69912Y-56805D01*
X69734Y-56804D01*
X69675Y-56805D01*
X69619Y-56827D01*
X69577Y-56870D01*
X69554Y-56925D01*
X69555Y-57437D01*
X69592Y-57475D01*
X69950Y-57475D01*
X69950Y-57575D01*
X69592Y-57575D01*
X69555Y-57612D01*
X69554Y-58124D01*
X69577Y-58179D01*
X69619Y-58222D01*
X69675Y-58244D01*
X69734Y-58245D01*
X69912Y-58245D01*
X69950Y-58207D01*
X69950Y-58254D01*
X69675Y-58254D01*
X69620Y-58277D01*
X69577Y-58319D01*
X69555Y-58375D01*
X69554Y-58434D01*
X69554Y-59574D01*
X69577Y-59629D01*
X69619Y-59672D01*
X69675Y-59694D01*
X69734Y-59695D01*
X70324Y-59695D01*
X70379Y-59672D01*
X70422Y-59630D01*
X70444Y-59574D01*
X70445Y-59515D01*
X70445Y-59925D01*
X70422Y-59870D01*
X70380Y-59827D01*
X70324Y-59805D01*
X70265Y-59804D01*
X69675Y-59804D01*
X69620Y-59827D01*
X69577Y-59869D01*
X69555Y-59925D01*
X69554Y-59984D01*
X69554Y-61124D01*
X69577Y-61179D01*
X69619Y-61222D01*
X69675Y-61244D01*
X69734Y-61245D01*
X70324Y-61245D01*
X70379Y-61222D01*
X70422Y-61180D01*
X70444Y-61124D01*
X70445Y-61065D01*
X70445Y-61375D01*
X70422Y-61320D01*
X70380Y-61277D01*
X70324Y-61255D01*
X70265Y-61254D01*
X70087Y-61255D01*
X70050Y-61292D01*
X70050Y-61925D01*
X70407Y-61925D01*
X70445Y-61887D01*
X70445Y-61375D01*
X70445Y-62574D01*
X70445Y-62062D01*
X70407Y-62025D01*
X70050Y-62025D01*
X70050Y-62657D01*
X70087Y-62695D01*
X70265Y-62695D01*
X70324Y-62694D01*
X70380Y-62672D01*
X70422Y-62629D01*
X70445Y-62574D01*
X70445Y-67918D01*
X70236Y-67918D01*
X69950Y-68037D01*
X69950Y-62657D01*
X69950Y-62025D01*
X69950Y-61925D01*
X69950Y-61292D01*
X69912Y-61255D01*
X69734Y-61254D01*
X69675Y-61255D01*
X69619Y-61277D01*
X69577Y-61320D01*
X69554Y-61375D01*
X69555Y-61887D01*
X69592Y-61925D01*
X69950Y-61925D01*
X69950Y-62025D01*
X69592Y-62025D01*
X69555Y-62062D01*
X69554Y-62574D01*
X69577Y-62629D01*
X69619Y-62672D01*
X69675Y-62694D01*
X69734Y-62695D01*
X69912Y-62695D01*
X69950Y-62657D01*
X69950Y-68037D01*
X69746Y-68120D01*
X69550Y-68317D01*
X69550Y-53182D01*
X69745Y-53377D01*
X70234Y-53580D01*
X70763Y-53581D01*
X71253Y-53379D01*
X71627Y-53004D01*
X71830Y-52515D01*
X71831Y-51986D01*
X71629Y-51496D01*
X71432Y-51300D01*
X72799Y-51300D01*
X72799Y-51829D01*
X72822Y-51884D01*
X72864Y-51927D01*
X72920Y-51949D01*
X72979Y-51950D01*
X73579Y-51950D01*
X73634Y-51927D01*
X73677Y-51885D01*
X73699Y-51829D01*
X73700Y-51770D01*
X73700Y-51300D01*
X73842Y-51300D01*
X73794Y-51442D01*
X73807Y-51620D01*
X73851Y-51727D01*
X73918Y-51760D01*
X74179Y-51500D01*
X74173Y-51494D01*
X74244Y-51423D01*
X74250Y-51429D01*
X74255Y-51423D01*
X74326Y-51494D01*
X74320Y-51500D01*
X74581Y-51760D01*
X74648Y-51727D01*
X74705Y-51557D01*
X74692Y-51379D01*
X74659Y-51300D01*
X80347Y-51300D01*
X80327Y-51329D01*
X80293Y-51500D01*
X80327Y-51670D01*
X80423Y-51814D01*
X80568Y-51911D01*
X80738Y-51945D01*
X81056Y-51945D01*
X81226Y-51911D01*
X81371Y-51814D01*
X81467Y-51670D01*
X81501Y-51500D01*
X81467Y-51329D01*
X81447Y-51300D01*
X84052Y-51300D01*
X84032Y-51329D01*
X83998Y-51500D01*
X84032Y-51670D01*
X84128Y-51814D01*
X84273Y-51911D01*
X84443Y-51945D01*
X84761Y-51945D01*
X84931Y-51911D01*
X85076Y-51814D01*
X85172Y-51670D01*
X85206Y-51500D01*
X85172Y-51329D01*
X85152Y-51300D01*
X86567Y-51300D01*
X86372Y-51495D01*
X86169Y-51984D01*
X86168Y-52513D01*
X86370Y-53003D01*
X86745Y-53377D01*
X87234Y-53580D01*
X87763Y-53581D01*
X88253Y-53379D01*
X88450Y-53182D01*
X88450Y-58920D01*
X88427Y-58865D01*
X88385Y-58822D01*
X88329Y-58800D01*
X88270Y-58799D01*
X87670Y-58799D01*
X87615Y-58822D01*
X87572Y-58864D01*
X87550Y-58920D01*
X87549Y-58979D01*
X87549Y-59579D01*
X87572Y-59634D01*
X87614Y-59677D01*
X87670Y-59699D01*
X87729Y-59700D01*
X88329Y-59700D01*
X88384Y-59677D01*
X88427Y-59635D01*
X88449Y-59579D01*
X88450Y-59550D01*
X88450Y-60160D01*
X88381Y-59995D01*
X88255Y-59868D01*
X88089Y-59800D01*
X87910Y-59799D01*
X87745Y-59868D01*
X87618Y-59994D01*
X87550Y-60160D01*
X87549Y-60339D01*
X87618Y-60504D01*
X87744Y-60631D01*
X87910Y-60699D01*
X88089Y-60700D01*
X88254Y-60631D01*
X88381Y-60505D01*
X88449Y-60339D01*
X88450Y-60249D01*
X88450Y-61160D01*
X88381Y-60995D01*
X88255Y-60868D01*
X88089Y-60800D01*
X87910Y-60799D01*
X87745Y-60868D01*
X87618Y-60994D01*
X87550Y-61160D01*
X87549Y-61339D01*
X87618Y-61504D01*
X87744Y-61631D01*
X87910Y-61699D01*
X88089Y-61700D01*
X88254Y-61631D01*
X88381Y-61505D01*
X88449Y-61339D01*
X88450Y-61249D01*
X88450Y-62234D01*
X88442Y-62129D01*
X88398Y-62022D01*
X88331Y-61989D01*
X88260Y-62060D01*
X88260Y-61918D01*
X88227Y-61851D01*
X88057Y-61794D01*
X87879Y-61807D01*
X87772Y-61851D01*
X87739Y-61918D01*
X88000Y-62179D01*
X88260Y-61918D01*
X88260Y-62060D01*
X88070Y-62250D01*
X88331Y-62510D01*
X88398Y-62477D01*
X88450Y-62323D01*
X88450Y-68317D01*
X88450Y-68317D01*
G37*
G54D27*
X88450Y-68317D02*
X88260Y-68127D01*
X88260Y-62581D01*
X88000Y-62320D01*
X87929Y-62391D01*
X87929Y-62250D01*
X87668Y-61989D01*
X87601Y-62022D01*
X87549Y-62177D01*
X87549Y-57330D01*
X87545Y-57236D01*
X87545Y-55615D01*
X87545Y-54825D01*
X87522Y-54770D01*
X87480Y-54727D01*
X87424Y-54705D01*
X87365Y-54704D01*
X86575Y-54704D01*
X86520Y-54727D01*
X86477Y-54769D01*
X86455Y-54825D01*
X86454Y-54884D01*
X86454Y-55674D01*
X86477Y-55729D01*
X86519Y-55772D01*
X86575Y-55794D01*
X86634Y-55795D01*
X87424Y-55795D01*
X87479Y-55772D01*
X87522Y-55730D01*
X87544Y-55674D01*
X87545Y-55615D01*
X87545Y-57236D01*
X87538Y-57114D01*
X87477Y-56965D01*
X87400Y-56920D01*
X87329Y-56991D01*
X87329Y-56849D01*
X87284Y-56772D01*
X87080Y-56700D01*
X86864Y-56711D01*
X86715Y-56772D01*
X86670Y-56849D01*
X87000Y-57179D01*
X87329Y-56849D01*
X87329Y-56991D01*
X87070Y-57250D01*
X87400Y-57579D01*
X87477Y-57534D01*
X87549Y-57330D01*
X87549Y-62177D01*
X87544Y-62192D01*
X87557Y-62370D01*
X87601Y-62477D01*
X87668Y-62510D01*
X87929Y-62250D01*
X87929Y-62391D01*
X87739Y-62581D01*
X87772Y-62648D01*
X87942Y-62705D01*
X88120Y-62692D01*
X88227Y-62648D01*
X88260Y-62581D01*
X88260Y-68127D01*
X88254Y-68122D01*
X87765Y-67919D01*
X87549Y-67918D01*
X87549Y-66330D01*
X87545Y-66236D01*
X87545Y-64615D01*
X87545Y-63825D01*
X87522Y-63770D01*
X87480Y-63727D01*
X87424Y-63705D01*
X87365Y-63704D01*
X87329Y-63704D01*
X87329Y-57650D01*
X87000Y-57320D01*
X86929Y-57391D01*
X86929Y-57250D01*
X86599Y-56920D01*
X86522Y-56965D01*
X86450Y-57169D01*
X86461Y-57385D01*
X86522Y-57534D01*
X86599Y-57579D01*
X86929Y-57250D01*
X86929Y-57391D01*
X86670Y-57650D01*
X86715Y-57727D01*
X86919Y-57799D01*
X87135Y-57788D01*
X87284Y-57727D01*
X87329Y-57650D01*
X87329Y-63704D01*
X86575Y-63704D01*
X86520Y-63727D01*
X86477Y-63769D01*
X86455Y-63825D01*
X86454Y-63884D01*
X86454Y-64674D01*
X86477Y-64729D01*
X86519Y-64772D01*
X86575Y-64794D01*
X86634Y-64795D01*
X87424Y-64795D01*
X87479Y-64772D01*
X87522Y-64730D01*
X87544Y-64674D01*
X87545Y-64615D01*
X87545Y-66236D01*
X87538Y-66114D01*
X87477Y-65965D01*
X87400Y-65920D01*
X87329Y-65991D01*
X87329Y-65849D01*
X87284Y-65772D01*
X87080Y-65700D01*
X86864Y-65711D01*
X86715Y-65772D01*
X86670Y-65849D01*
X87000Y-66179D01*
X87329Y-65849D01*
X87329Y-65991D01*
X87070Y-66250D01*
X87400Y-66579D01*
X87477Y-66534D01*
X87549Y-66330D01*
X87549Y-67918D01*
X87329Y-67918D01*
X87329Y-66650D01*
X87000Y-66320D01*
X86929Y-66391D01*
X86929Y-66250D01*
X86599Y-65920D01*
X86522Y-65965D01*
X86450Y-66169D01*
X86461Y-66385D01*
X86522Y-66534D01*
X86599Y-66579D01*
X86929Y-66250D01*
X86929Y-66391D01*
X86670Y-66650D01*
X86715Y-66727D01*
X86919Y-66799D01*
X87135Y-66788D01*
X87284Y-66727D01*
X87329Y-66650D01*
X87329Y-67918D01*
X87236Y-67918D01*
X86746Y-68120D01*
X86372Y-68495D01*
X86169Y-68984D01*
X86168Y-69513D01*
X86370Y-70003D01*
X86567Y-70200D01*
X86090Y-70200D01*
X86090Y-62815D01*
X86090Y-62125D01*
X86090Y-59315D01*
X86090Y-58625D01*
X86067Y-58570D01*
X86025Y-58527D01*
X85969Y-58505D01*
X85910Y-58504D01*
X84875Y-58504D01*
X84820Y-58527D01*
X84777Y-58569D01*
X84755Y-58625D01*
X84754Y-58684D01*
X84754Y-59374D01*
X84777Y-59429D01*
X84819Y-59472D01*
X84875Y-59494D01*
X84934Y-59495D01*
X85969Y-59495D01*
X86024Y-59472D01*
X86067Y-59430D01*
X86089Y-59374D01*
X86090Y-59315D01*
X86090Y-62125D01*
X86067Y-62070D01*
X86025Y-62027D01*
X85969Y-62005D01*
X85910Y-62004D01*
X84875Y-62004D01*
X84820Y-62027D01*
X84777Y-62069D01*
X84755Y-62125D01*
X84754Y-62184D01*
X84754Y-62874D01*
X84777Y-62929D01*
X84819Y-62972D01*
X84875Y-62994D01*
X84934Y-62995D01*
X85969Y-62995D01*
X86024Y-62972D01*
X86067Y-62930D01*
X86089Y-62874D01*
X86090Y-62815D01*
X86090Y-70200D01*
X85652Y-70200D01*
X85672Y-70170D01*
X85706Y-70000D01*
X85672Y-69829D01*
X85576Y-69685D01*
X85431Y-69588D01*
X85261Y-69555D01*
X84943Y-69555D01*
X84773Y-69588D01*
X84728Y-69618D01*
X84728Y-62626D01*
X84728Y-62373D01*
X84728Y-59126D01*
X84728Y-58873D01*
X84726Y-58856D01*
X84635Y-58685D01*
X84485Y-58561D01*
X84300Y-58505D01*
X84127Y-58505D01*
X84127Y-58950D01*
X84704Y-58950D01*
X84728Y-58873D01*
X84728Y-59126D01*
X84704Y-59050D01*
X84127Y-59050D01*
X84127Y-59495D01*
X84300Y-59495D01*
X84485Y-59438D01*
X84635Y-59314D01*
X84726Y-59143D01*
X84728Y-59126D01*
X84728Y-62373D01*
X84726Y-62356D01*
X84635Y-62185D01*
X84485Y-62061D01*
X84300Y-62005D01*
X84127Y-62005D01*
X84127Y-62450D01*
X84704Y-62450D01*
X84728Y-62373D01*
X84728Y-62626D01*
X84704Y-62550D01*
X84127Y-62550D01*
X84127Y-62995D01*
X84300Y-62995D01*
X84485Y-62938D01*
X84635Y-62814D01*
X84726Y-62643D01*
X84728Y-62626D01*
X84728Y-69618D01*
X84628Y-69685D01*
X84532Y-69829D01*
X84498Y-70000D01*
X84532Y-70170D01*
X84552Y-70200D01*
X84027Y-70200D01*
X84027Y-62995D01*
X84027Y-62550D01*
X84027Y-62450D01*
X84027Y-62005D01*
X84027Y-59495D01*
X84027Y-59050D01*
X84027Y-58950D01*
X84027Y-58505D01*
X83855Y-58505D01*
X83669Y-58561D01*
X83519Y-58685D01*
X83501Y-58719D01*
X83501Y-57750D01*
X83467Y-57579D01*
X83371Y-57435D01*
X83245Y-57350D01*
X83245Y-54410D01*
X83245Y-53375D01*
X83245Y-53375D01*
X83245Y-52800D01*
X83245Y-52627D01*
X83245Y-52527D01*
X83245Y-52355D01*
X83188Y-52169D01*
X83064Y-52019D01*
X82893Y-51928D01*
X82876Y-51926D01*
X82800Y-51950D01*
X82800Y-52527D01*
X83245Y-52527D01*
X83245Y-52627D01*
X82800Y-52627D01*
X82800Y-53204D01*
X82876Y-53228D01*
X82893Y-53226D01*
X83064Y-53135D01*
X83188Y-52985D01*
X83245Y-52800D01*
X83245Y-53375D01*
X83222Y-53320D01*
X83180Y-53277D01*
X83124Y-53255D01*
X83065Y-53254D01*
X82700Y-53254D01*
X82700Y-53204D01*
X82700Y-52627D01*
X82700Y-52527D01*
X82700Y-51950D01*
X82623Y-51926D01*
X82606Y-51928D01*
X82435Y-52019D01*
X82311Y-52169D01*
X82255Y-52355D01*
X82255Y-52527D01*
X82700Y-52527D01*
X82700Y-52627D01*
X82255Y-52627D01*
X82255Y-52800D01*
X82311Y-52985D01*
X82435Y-53135D01*
X82606Y-53226D01*
X82623Y-53228D01*
X82700Y-53204D01*
X82700Y-53254D01*
X82375Y-53254D01*
X82320Y-53277D01*
X82277Y-53319D01*
X82255Y-53375D01*
X82254Y-53434D01*
X82254Y-54469D01*
X82277Y-54524D01*
X82319Y-54567D01*
X82375Y-54589D01*
X82434Y-54590D01*
X83124Y-54590D01*
X83179Y-54567D01*
X83222Y-54525D01*
X83244Y-54469D01*
X83245Y-54410D01*
X83245Y-57350D01*
X83226Y-57338D01*
X83056Y-57305D01*
X82738Y-57305D01*
X82693Y-57313D01*
X82706Y-57250D01*
X82672Y-57079D01*
X82576Y-56935D01*
X82431Y-56838D01*
X82261Y-56805D01*
X81943Y-56805D01*
X81773Y-56838D01*
X81628Y-56935D01*
X81532Y-57079D01*
X81498Y-57250D01*
X81532Y-57420D01*
X81628Y-57564D01*
X81773Y-57661D01*
X81943Y-57695D01*
X82261Y-57695D01*
X82306Y-57686D01*
X82293Y-57750D01*
X82306Y-57813D01*
X82261Y-57805D01*
X81943Y-57805D01*
X81773Y-57838D01*
X81628Y-57935D01*
X81532Y-58079D01*
X81498Y-58250D01*
X81532Y-58420D01*
X81628Y-58564D01*
X81773Y-58661D01*
X81943Y-58695D01*
X82261Y-58695D01*
X82431Y-58661D01*
X82576Y-58564D01*
X82672Y-58420D01*
X82706Y-58250D01*
X82693Y-58186D01*
X82738Y-58195D01*
X83056Y-58195D01*
X83226Y-58161D01*
X83371Y-58064D01*
X83467Y-57920D01*
X83501Y-57750D01*
X83501Y-58719D01*
X83428Y-58856D01*
X83426Y-58873D01*
X83450Y-58950D01*
X84027Y-58950D01*
X84027Y-59050D01*
X83450Y-59050D01*
X83426Y-59126D01*
X83428Y-59143D01*
X83519Y-59314D01*
X83669Y-59438D01*
X83855Y-59495D01*
X84027Y-59495D01*
X84027Y-62005D01*
X83855Y-62005D01*
X83669Y-62061D01*
X83519Y-62185D01*
X83428Y-62356D01*
X83426Y-62373D01*
X83450Y-62450D01*
X84027Y-62450D01*
X84027Y-62550D01*
X83450Y-62550D01*
X83426Y-62626D01*
X83428Y-62643D01*
X83519Y-62814D01*
X83669Y-62938D01*
X83855Y-62995D01*
X84027Y-62995D01*
X84027Y-70200D01*
X83745Y-70200D01*
X83745Y-68065D01*
X83745Y-67030D01*
X83722Y-66975D01*
X83680Y-66932D01*
X83624Y-66910D01*
X83565Y-66909D01*
X83501Y-66909D01*
X83501Y-63750D01*
X83467Y-63579D01*
X83371Y-63435D01*
X83226Y-63338D01*
X83056Y-63305D01*
X82738Y-63305D01*
X82693Y-63313D01*
X82706Y-63250D01*
X82672Y-63079D01*
X82576Y-62935D01*
X82431Y-62838D01*
X82261Y-62805D01*
X81943Y-62805D01*
X81773Y-62838D01*
X81628Y-62935D01*
X81532Y-63079D01*
X81498Y-63250D01*
X81532Y-63420D01*
X81628Y-63564D01*
X81773Y-63661D01*
X81943Y-63695D01*
X82261Y-63695D01*
X82306Y-63686D01*
X82293Y-63750D01*
X82306Y-63813D01*
X82261Y-63805D01*
X81943Y-63805D01*
X81773Y-63838D01*
X81628Y-63935D01*
X81532Y-64079D01*
X81498Y-64250D01*
X81532Y-64420D01*
X81628Y-64564D01*
X81773Y-64661D01*
X81943Y-64695D01*
X82261Y-64695D01*
X82431Y-64661D01*
X82576Y-64564D01*
X82672Y-64420D01*
X82706Y-64250D01*
X82693Y-64186D01*
X82738Y-64195D01*
X83056Y-64195D01*
X83226Y-64161D01*
X83371Y-64064D01*
X83467Y-63920D01*
X83501Y-63750D01*
X83501Y-66909D01*
X82875Y-66909D01*
X82820Y-66932D01*
X82777Y-66974D01*
X82755Y-67030D01*
X82754Y-67089D01*
X82754Y-68124D01*
X82777Y-68179D01*
X82819Y-68222D01*
X82875Y-68244D01*
X82934Y-68245D01*
X83624Y-68245D01*
X83679Y-68222D01*
X83722Y-68180D01*
X83744Y-68124D01*
X83745Y-68065D01*
X83745Y-70200D01*
X83745Y-70200D01*
X83745Y-69145D01*
X83745Y-68972D01*
X83745Y-68872D01*
X83745Y-68700D01*
X83688Y-68514D01*
X83564Y-68364D01*
X83393Y-68273D01*
X83376Y-68271D01*
X83300Y-68295D01*
X83300Y-68872D01*
X83745Y-68872D01*
X83745Y-68972D01*
X83300Y-68972D01*
X83300Y-69549D01*
X83376Y-69573D01*
X83393Y-69571D01*
X83564Y-69480D01*
X83688Y-69330D01*
X83745Y-69145D01*
X83745Y-70200D01*
X83200Y-70200D01*
X83200Y-69549D01*
X83200Y-68972D01*
X83200Y-68872D01*
X83200Y-68295D01*
X83123Y-68271D01*
X83106Y-68273D01*
X82935Y-68364D01*
X82811Y-68514D01*
X82755Y-68700D01*
X82755Y-68872D01*
X83200Y-68872D01*
X83200Y-68972D01*
X82755Y-68972D01*
X82755Y-69145D01*
X82811Y-69330D01*
X82935Y-69480D01*
X83106Y-69571D01*
X83123Y-69573D01*
X83200Y-69549D01*
X83200Y-70200D01*
X81947Y-70200D01*
X81967Y-70170D01*
X82001Y-70000D01*
X81967Y-69829D01*
X81871Y-69685D01*
X81726Y-69588D01*
X81556Y-69555D01*
X81445Y-69555D01*
X81445Y-65761D01*
X81445Y-65443D01*
X81445Y-62056D01*
X81445Y-61738D01*
X81445Y-59761D01*
X81445Y-59443D01*
X81445Y-56056D01*
X81445Y-55738D01*
X81411Y-55568D01*
X81314Y-55423D01*
X81170Y-55327D01*
X81000Y-55293D01*
X80829Y-55327D01*
X80685Y-55423D01*
X80588Y-55568D01*
X80555Y-55738D01*
X80555Y-56056D01*
X80588Y-56226D01*
X80685Y-56371D01*
X80829Y-56467D01*
X81000Y-56501D01*
X81170Y-56467D01*
X81314Y-56371D01*
X81411Y-56226D01*
X81445Y-56056D01*
X81445Y-59443D01*
X81411Y-59273D01*
X81314Y-59128D01*
X81170Y-59032D01*
X81000Y-58998D01*
X80829Y-59032D01*
X80685Y-59128D01*
X80588Y-59273D01*
X80555Y-59443D01*
X80555Y-59761D01*
X80588Y-59931D01*
X80685Y-60076D01*
X80829Y-60172D01*
X81000Y-60206D01*
X81170Y-60172D01*
X81314Y-60076D01*
X81411Y-59931D01*
X81445Y-59761D01*
X81445Y-61738D01*
X81411Y-61568D01*
X81314Y-61423D01*
X81170Y-61327D01*
X81000Y-61293D01*
X80829Y-61327D01*
X80685Y-61423D01*
X80588Y-61568D01*
X80555Y-61738D01*
X80555Y-62056D01*
X80588Y-62226D01*
X80685Y-62371D01*
X80829Y-62467D01*
X81000Y-62501D01*
X81170Y-62467D01*
X81314Y-62371D01*
X81411Y-62226D01*
X81445Y-62056D01*
X81445Y-65443D01*
X81411Y-65273D01*
X81314Y-65128D01*
X81170Y-65032D01*
X81000Y-64998D01*
X80829Y-65032D01*
X80685Y-65128D01*
X80588Y-65273D01*
X80555Y-65443D01*
X80555Y-65761D01*
X80588Y-65931D01*
X80685Y-66076D01*
X80829Y-66172D01*
X81000Y-66206D01*
X81170Y-66172D01*
X81314Y-66076D01*
X81411Y-65931D01*
X81445Y-65761D01*
X81445Y-69555D01*
X81238Y-69555D01*
X81068Y-69588D01*
X80923Y-69685D01*
X80827Y-69829D01*
X80793Y-70000D01*
X80827Y-70170D01*
X80847Y-70200D01*
X80445Y-70200D01*
X80445Y-65761D01*
X80445Y-65443D01*
X80445Y-62056D01*
X80445Y-61738D01*
X80445Y-59761D01*
X80445Y-59443D01*
X80445Y-56056D01*
X80445Y-55738D01*
X80411Y-55568D01*
X80314Y-55423D01*
X80170Y-55327D01*
X80000Y-55293D01*
X79829Y-55327D01*
X79685Y-55423D01*
X79588Y-55568D01*
X79555Y-55738D01*
X79555Y-56056D01*
X79588Y-56226D01*
X79685Y-56371D01*
X79829Y-56467D01*
X80000Y-56501D01*
X80170Y-56467D01*
X80314Y-56371D01*
X80411Y-56226D01*
X80445Y-56056D01*
X80445Y-59443D01*
X80411Y-59273D01*
X80314Y-59128D01*
X80170Y-59032D01*
X80000Y-58998D01*
X79829Y-59032D01*
X79685Y-59128D01*
X79588Y-59273D01*
X79555Y-59443D01*
X79555Y-59761D01*
X79588Y-59931D01*
X79685Y-60076D01*
X79829Y-60172D01*
X80000Y-60206D01*
X80170Y-60172D01*
X80314Y-60076D01*
X80411Y-59931D01*
X80445Y-59761D01*
X80445Y-61738D01*
X80411Y-61568D01*
X80314Y-61423D01*
X80170Y-61327D01*
X80000Y-61293D01*
X79829Y-61327D01*
X79685Y-61423D01*
X79588Y-61568D01*
X79555Y-61738D01*
X79555Y-62056D01*
X79588Y-62226D01*
X79685Y-62371D01*
X79829Y-62467D01*
X80000Y-62501D01*
X80170Y-62467D01*
X80314Y-62371D01*
X80411Y-62226D01*
X80445Y-62056D01*
X80445Y-65443D01*
X80411Y-65273D01*
X80314Y-65128D01*
X80170Y-65032D01*
X80000Y-64998D01*
X79829Y-65032D01*
X79685Y-65128D01*
X79588Y-65273D01*
X79555Y-65443D01*
X79555Y-65761D01*
X79588Y-65931D01*
X79685Y-66076D01*
X79829Y-66172D01*
X80000Y-66206D01*
X80170Y-66172D01*
X80314Y-66076D01*
X80411Y-65931D01*
X80445Y-65761D01*
X80445Y-70200D01*
X79445Y-70200D01*
X79445Y-65761D01*
X79445Y-65443D01*
X79445Y-62056D01*
X79445Y-61738D01*
X79445Y-59761D01*
X79445Y-59443D01*
X79445Y-56056D01*
X79445Y-55738D01*
X79411Y-55568D01*
X79314Y-55423D01*
X79170Y-55327D01*
X79000Y-55293D01*
X78995Y-55294D01*
X78995Y-52358D01*
X78995Y-51986D01*
X78957Y-51797D01*
X78850Y-51636D01*
X78689Y-51529D01*
X78500Y-51491D01*
X78310Y-51529D01*
X78149Y-51636D01*
X78042Y-51797D01*
X78005Y-51986D01*
X78005Y-52358D01*
X78042Y-52547D01*
X78149Y-52708D01*
X78310Y-52815D01*
X78500Y-52853D01*
X78689Y-52815D01*
X78850Y-52708D01*
X78957Y-52547D01*
X78995Y-52358D01*
X78995Y-55294D01*
X78945Y-55304D01*
X78945Y-54765D01*
X78945Y-54234D01*
X78945Y-53765D01*
X78945Y-53175D01*
X78922Y-53120D01*
X78880Y-53077D01*
X78824Y-53055D01*
X78765Y-53054D01*
X77995Y-53054D01*
X77995Y-52395D01*
X77995Y-52222D01*
X77995Y-52122D01*
X77995Y-51950D01*
X77938Y-51764D01*
X77814Y-51614D01*
X77643Y-51523D01*
X77626Y-51521D01*
X77550Y-51545D01*
X77550Y-52122D01*
X77995Y-52122D01*
X77995Y-52222D01*
X77550Y-52222D01*
X77550Y-52799D01*
X77626Y-52823D01*
X77643Y-52821D01*
X77814Y-52730D01*
X77938Y-52580D01*
X77995Y-52395D01*
X77995Y-53054D01*
X77625Y-53054D01*
X77570Y-53077D01*
X77527Y-53119D01*
X77505Y-53175D01*
X77504Y-53234D01*
X77504Y-53824D01*
X77527Y-53879D01*
X77569Y-53922D01*
X77625Y-53944D01*
X77684Y-53945D01*
X78824Y-53945D01*
X78879Y-53922D01*
X78922Y-53880D01*
X78944Y-53824D01*
X78945Y-53765D01*
X78945Y-54234D01*
X78944Y-54175D01*
X78922Y-54119D01*
X78879Y-54077D01*
X78824Y-54054D01*
X78312Y-54055D01*
X78275Y-54092D01*
X78275Y-54450D01*
X78907Y-54450D01*
X78945Y-54412D01*
X78945Y-54234D01*
X78945Y-54765D01*
X78945Y-54587D01*
X78907Y-54550D01*
X78275Y-54550D01*
X78275Y-54907D01*
X78312Y-54945D01*
X78824Y-54945D01*
X78879Y-54922D01*
X78922Y-54880D01*
X78944Y-54824D01*
X78945Y-54765D01*
X78945Y-55304D01*
X78829Y-55327D01*
X78685Y-55423D01*
X78588Y-55568D01*
X78555Y-55738D01*
X78555Y-56056D01*
X78588Y-56226D01*
X78685Y-56371D01*
X78829Y-56467D01*
X79000Y-56501D01*
X79170Y-56467D01*
X79314Y-56371D01*
X79411Y-56226D01*
X79445Y-56056D01*
X79445Y-59443D01*
X79411Y-59273D01*
X79314Y-59128D01*
X79170Y-59032D01*
X79000Y-58998D01*
X78829Y-59032D01*
X78685Y-59128D01*
X78588Y-59273D01*
X78555Y-59443D01*
X78555Y-59761D01*
X78588Y-59931D01*
X78685Y-60076D01*
X78829Y-60172D01*
X79000Y-60206D01*
X79170Y-60172D01*
X79314Y-60076D01*
X79411Y-59931D01*
X79445Y-59761D01*
X79445Y-61738D01*
X79411Y-61568D01*
X79314Y-61423D01*
X79170Y-61327D01*
X79000Y-61293D01*
X78829Y-61327D01*
X78685Y-61423D01*
X78588Y-61568D01*
X78555Y-61738D01*
X78555Y-62056D01*
X78588Y-62226D01*
X78685Y-62371D01*
X78829Y-62467D01*
X79000Y-62501D01*
X79170Y-62467D01*
X79314Y-62371D01*
X79411Y-62226D01*
X79445Y-62056D01*
X79445Y-65443D01*
X79411Y-65273D01*
X79314Y-65128D01*
X79170Y-65032D01*
X79000Y-64998D01*
X78829Y-65032D01*
X78685Y-65128D01*
X78588Y-65273D01*
X78555Y-65443D01*
X78555Y-65761D01*
X78588Y-65931D01*
X78685Y-66076D01*
X78829Y-66172D01*
X79000Y-66206D01*
X79170Y-66172D01*
X79314Y-66076D01*
X79411Y-65931D01*
X79445Y-65761D01*
X79445Y-70200D01*
X78445Y-70200D01*
X78445Y-65015D01*
X78445Y-63875D01*
X78445Y-63624D01*
X78445Y-62425D01*
X78445Y-59074D01*
X78445Y-57875D01*
X78445Y-57565D01*
X78445Y-56425D01*
X78422Y-56370D01*
X78380Y-56327D01*
X78324Y-56305D01*
X78265Y-56304D01*
X78175Y-56304D01*
X78175Y-54907D01*
X78175Y-54550D01*
X78175Y-54450D01*
X78175Y-54092D01*
X78137Y-54055D01*
X77625Y-54054D01*
X77570Y-54077D01*
X77527Y-54119D01*
X77505Y-54175D01*
X77504Y-54234D01*
X77505Y-54412D01*
X77542Y-54450D01*
X78175Y-54450D01*
X78175Y-54550D01*
X77542Y-54550D01*
X77505Y-54587D01*
X77504Y-54765D01*
X77505Y-54824D01*
X77527Y-54880D01*
X77570Y-54922D01*
X77625Y-54945D01*
X78137Y-54945D01*
X78175Y-54907D01*
X78175Y-56304D01*
X77675Y-56304D01*
X77620Y-56327D01*
X77577Y-56369D01*
X77555Y-56425D01*
X77554Y-56484D01*
X77554Y-57624D01*
X77577Y-57679D01*
X77619Y-57722D01*
X77675Y-57744D01*
X77734Y-57745D01*
X78324Y-57745D01*
X78379Y-57722D01*
X78422Y-57680D01*
X78444Y-57624D01*
X78445Y-57565D01*
X78445Y-57875D01*
X78422Y-57820D01*
X78380Y-57777D01*
X78324Y-57755D01*
X78265Y-57754D01*
X78087Y-57755D01*
X78050Y-57792D01*
X78050Y-58425D01*
X78407Y-58425D01*
X78445Y-58387D01*
X78445Y-57875D01*
X78445Y-59074D01*
X78445Y-58562D01*
X78407Y-58525D01*
X78050Y-58525D01*
X78050Y-59157D01*
X78087Y-59195D01*
X78265Y-59195D01*
X78324Y-59194D01*
X78380Y-59172D01*
X78422Y-59129D01*
X78445Y-59074D01*
X78445Y-62425D01*
X78422Y-62370D01*
X78380Y-62327D01*
X78324Y-62305D01*
X78265Y-62304D01*
X78087Y-62305D01*
X78050Y-62342D01*
X78050Y-62975D01*
X78407Y-62975D01*
X78445Y-62937D01*
X78445Y-62425D01*
X78445Y-63624D01*
X78445Y-63112D01*
X78407Y-63075D01*
X78050Y-63075D01*
X78050Y-63707D01*
X78087Y-63745D01*
X78265Y-63745D01*
X78324Y-63744D01*
X78380Y-63722D01*
X78422Y-63679D01*
X78445Y-63624D01*
X78445Y-63875D01*
X78422Y-63820D01*
X78380Y-63777D01*
X78324Y-63755D01*
X78265Y-63754D01*
X77950Y-63754D01*
X77950Y-63707D01*
X77950Y-63075D01*
X77950Y-62975D01*
X77950Y-62342D01*
X77950Y-59157D01*
X77950Y-58525D01*
X77950Y-58425D01*
X77950Y-57792D01*
X77912Y-57755D01*
X77734Y-57754D01*
X77675Y-57755D01*
X77619Y-57777D01*
X77577Y-57820D01*
X77554Y-57875D01*
X77555Y-58387D01*
X77592Y-58425D01*
X77950Y-58425D01*
X77950Y-58525D01*
X77592Y-58525D01*
X77555Y-58562D01*
X77554Y-59074D01*
X77577Y-59129D01*
X77619Y-59172D01*
X77675Y-59194D01*
X77734Y-59195D01*
X77912Y-59195D01*
X77950Y-59157D01*
X77950Y-62342D01*
X77912Y-62305D01*
X77734Y-62304D01*
X77675Y-62305D01*
X77619Y-62327D01*
X77577Y-62370D01*
X77554Y-62425D01*
X77555Y-62937D01*
X77592Y-62975D01*
X77950Y-62975D01*
X77950Y-63075D01*
X77592Y-63075D01*
X77555Y-63112D01*
X77554Y-63624D01*
X77577Y-63679D01*
X77619Y-63722D01*
X77675Y-63744D01*
X77734Y-63745D01*
X77912Y-63745D01*
X77950Y-63707D01*
X77950Y-63754D01*
X77675Y-63754D01*
X77620Y-63777D01*
X77577Y-63819D01*
X77555Y-63875D01*
X77554Y-63934D01*
X77554Y-65074D01*
X77577Y-65129D01*
X77619Y-65172D01*
X77675Y-65194D01*
X77734Y-65195D01*
X78324Y-65195D01*
X78379Y-65172D01*
X78422Y-65130D01*
X78444Y-65074D01*
X78445Y-65015D01*
X78445Y-70200D01*
X77680Y-70200D01*
X77680Y-69051D01*
X77675Y-68984D01*
X77675Y-66915D01*
X77610Y-66759D01*
X77495Y-66643D01*
X77495Y-54765D01*
X77495Y-54175D01*
X77495Y-53765D01*
X77495Y-53234D01*
X77494Y-53175D01*
X77472Y-53119D01*
X77450Y-53097D01*
X77450Y-52799D01*
X77450Y-52222D01*
X77450Y-52122D01*
X77450Y-51545D01*
X77373Y-51521D01*
X77356Y-51523D01*
X77185Y-51614D01*
X77061Y-51764D01*
X77005Y-51950D01*
X77005Y-52122D01*
X77450Y-52122D01*
X77450Y-52222D01*
X77005Y-52222D01*
X77005Y-52395D01*
X77061Y-52580D01*
X77185Y-52730D01*
X77356Y-52821D01*
X77373Y-52823D01*
X77450Y-52799D01*
X77450Y-53097D01*
X77429Y-53077D01*
X77374Y-53054D01*
X76995Y-53054D01*
X76995Y-52660D01*
X76995Y-51625D01*
X76972Y-51570D01*
X76930Y-51527D01*
X76874Y-51505D01*
X76815Y-51504D01*
X76125Y-51504D01*
X76070Y-51527D01*
X76027Y-51569D01*
X76005Y-51625D01*
X76004Y-51684D01*
X76004Y-52719D01*
X76027Y-52774D01*
X76069Y-52817D01*
X76125Y-52839D01*
X76184Y-52840D01*
X76874Y-52840D01*
X76929Y-52817D01*
X76972Y-52775D01*
X76994Y-52719D01*
X76995Y-52660D01*
X76995Y-53054D01*
X76862Y-53055D01*
X76825Y-53092D01*
X76825Y-53450D01*
X77457Y-53450D01*
X77495Y-53412D01*
X77495Y-53234D01*
X77495Y-53765D01*
X77495Y-53587D01*
X77457Y-53550D01*
X76825Y-53550D01*
X76825Y-53907D01*
X76862Y-53945D01*
X77374Y-53945D01*
X77429Y-53922D01*
X77472Y-53880D01*
X77494Y-53824D01*
X77495Y-53765D01*
X77495Y-54175D01*
X77472Y-54120D01*
X77430Y-54077D01*
X77374Y-54055D01*
X77315Y-54054D01*
X76725Y-54054D01*
X76725Y-53907D01*
X76725Y-53550D01*
X76725Y-53450D01*
X76725Y-53092D01*
X76687Y-53055D01*
X76175Y-53054D01*
X76120Y-53077D01*
X76077Y-53119D01*
X76055Y-53175D01*
X76054Y-53234D01*
X76055Y-53412D01*
X76092Y-53450D01*
X76725Y-53450D01*
X76725Y-53550D01*
X76092Y-53550D01*
X76055Y-53587D01*
X76054Y-53765D01*
X76055Y-53824D01*
X76077Y-53880D01*
X76120Y-53922D01*
X76175Y-53945D01*
X76687Y-53945D01*
X76725Y-53907D01*
X76725Y-54054D01*
X76175Y-54054D01*
X76120Y-54077D01*
X76077Y-54119D01*
X76055Y-54175D01*
X76054Y-54234D01*
X76054Y-54824D01*
X76077Y-54879D01*
X76119Y-54922D01*
X76175Y-54944D01*
X76234Y-54945D01*
X77374Y-54945D01*
X77429Y-54922D01*
X77472Y-54880D01*
X77494Y-54824D01*
X77495Y-54765D01*
X77495Y-66643D01*
X77491Y-66639D01*
X77334Y-66575D01*
X77165Y-66574D01*
X77009Y-66639D01*
X76956Y-66692D01*
X76956Y-61250D01*
X76956Y-60250D01*
X76956Y-59250D01*
X76956Y-58250D01*
X76922Y-58079D01*
X76826Y-57935D01*
X76681Y-57838D01*
X76511Y-57805D01*
X76445Y-57805D01*
X76445Y-57265D01*
X76445Y-56675D01*
X76422Y-56620D01*
X76380Y-56577D01*
X76324Y-56555D01*
X76265Y-56554D01*
X75125Y-56554D01*
X75070Y-56577D01*
X75027Y-56619D01*
X75005Y-56675D01*
X75004Y-56734D01*
X75004Y-57324D01*
X75027Y-57379D01*
X75069Y-57422D01*
X75125Y-57444D01*
X75184Y-57445D01*
X76324Y-57445D01*
X76379Y-57422D01*
X76422Y-57380D01*
X76444Y-57324D01*
X76445Y-57265D01*
X76445Y-57805D01*
X76193Y-57805D01*
X76023Y-57838D01*
X75878Y-57935D01*
X75782Y-58079D01*
X75748Y-58250D01*
X75782Y-58420D01*
X75878Y-58564D01*
X76023Y-58661D01*
X76193Y-58695D01*
X76511Y-58695D01*
X76681Y-58661D01*
X76826Y-58564D01*
X76922Y-58420D01*
X76956Y-58250D01*
X76956Y-59250D01*
X76922Y-59079D01*
X76826Y-58935D01*
X76681Y-58838D01*
X76511Y-58805D01*
X76193Y-58805D01*
X76023Y-58838D01*
X75878Y-58935D01*
X75782Y-59079D01*
X75748Y-59250D01*
X75782Y-59420D01*
X75878Y-59564D01*
X76023Y-59661D01*
X76193Y-59695D01*
X76511Y-59695D01*
X76681Y-59661D01*
X76826Y-59564D01*
X76922Y-59420D01*
X76956Y-59250D01*
X76956Y-60250D01*
X76922Y-60079D01*
X76826Y-59935D01*
X76681Y-59838D01*
X76511Y-59805D01*
X76193Y-59805D01*
X76023Y-59838D01*
X75878Y-59935D01*
X75782Y-60079D01*
X75748Y-60250D01*
X75782Y-60420D01*
X75878Y-60564D01*
X76023Y-60661D01*
X76193Y-60695D01*
X76511Y-60695D01*
X76681Y-60661D01*
X76826Y-60564D01*
X76922Y-60420D01*
X76956Y-60250D01*
X76956Y-61250D01*
X76922Y-61079D01*
X76826Y-60935D01*
X76681Y-60838D01*
X76511Y-60805D01*
X76193Y-60805D01*
X76023Y-60838D01*
X75878Y-60935D01*
X75782Y-61079D01*
X75748Y-61250D01*
X75782Y-61420D01*
X75878Y-61564D01*
X76023Y-61661D01*
X76193Y-61695D01*
X76511Y-61695D01*
X76681Y-61661D01*
X76826Y-61564D01*
X76922Y-61420D01*
X76956Y-61250D01*
X76956Y-66692D01*
X76889Y-66758D01*
X76825Y-66915D01*
X76824Y-67084D01*
X76889Y-67240D01*
X77008Y-67360D01*
X77165Y-67424D01*
X77334Y-67425D01*
X77490Y-67360D01*
X77610Y-67241D01*
X77674Y-67084D01*
X77675Y-66915D01*
X77675Y-68984D01*
X77667Y-68883D01*
X77627Y-68787D01*
X77563Y-68757D01*
X77492Y-68828D01*
X77492Y-68686D01*
X77462Y-68622D01*
X77301Y-68569D01*
X77133Y-68582D01*
X77037Y-68622D01*
X77007Y-68686D01*
X77250Y-68929D01*
X77492Y-68686D01*
X77492Y-68828D01*
X77320Y-69000D01*
X77563Y-69242D01*
X77627Y-69212D01*
X77680Y-69051D01*
X77680Y-70200D01*
X77492Y-70200D01*
X77492Y-69313D01*
X77250Y-69070D01*
X77179Y-69141D01*
X77179Y-69000D01*
X76936Y-68757D01*
X76872Y-68787D01*
X76819Y-68948D01*
X76832Y-69116D01*
X76872Y-69212D01*
X76936Y-69242D01*
X77179Y-69000D01*
X77179Y-69141D01*
X77007Y-69313D01*
X77037Y-69377D01*
X77198Y-69430D01*
X77366Y-69417D01*
X77462Y-69377D01*
X77492Y-69313D01*
X77492Y-70200D01*
X75706Y-70200D01*
X75706Y-64500D01*
X75706Y-63500D01*
X75672Y-63329D01*
X75576Y-63185D01*
X75431Y-63088D01*
X75261Y-63055D01*
X74995Y-63055D01*
X74995Y-57265D01*
X74995Y-56734D01*
X74994Y-56675D01*
X74990Y-56663D01*
X74990Y-54765D01*
X74990Y-54175D01*
X74967Y-54120D01*
X74925Y-54077D01*
X74869Y-54055D01*
X74810Y-54054D01*
X74510Y-54054D01*
X74510Y-51831D01*
X74250Y-51570D01*
X73989Y-51831D01*
X74022Y-51898D01*
X74192Y-51955D01*
X74370Y-51942D01*
X74477Y-51898D01*
X74510Y-51831D01*
X74510Y-54054D01*
X73925Y-54054D01*
X73870Y-54077D01*
X73827Y-54119D01*
X73805Y-54175D01*
X73804Y-54234D01*
X73804Y-54824D01*
X73827Y-54879D01*
X73869Y-54922D01*
X73925Y-54944D01*
X73984Y-54945D01*
X74869Y-54945D01*
X74924Y-54922D01*
X74967Y-54880D01*
X74989Y-54824D01*
X74990Y-54765D01*
X74990Y-56663D01*
X74972Y-56619D01*
X74929Y-56577D01*
X74874Y-56554D01*
X74362Y-56555D01*
X74325Y-56592D01*
X74325Y-56950D01*
X74957Y-56950D01*
X74995Y-56912D01*
X74995Y-56734D01*
X74995Y-57265D01*
X74995Y-57087D01*
X74957Y-57050D01*
X74325Y-57050D01*
X74325Y-57407D01*
X74362Y-57445D01*
X74874Y-57445D01*
X74929Y-57422D01*
X74972Y-57380D01*
X74994Y-57324D01*
X74995Y-57265D01*
X74995Y-63055D01*
X74943Y-63055D01*
X74773Y-63088D01*
X74628Y-63185D01*
X74532Y-63329D01*
X74498Y-63500D01*
X74532Y-63670D01*
X74628Y-63814D01*
X74773Y-63911D01*
X74943Y-63945D01*
X75261Y-63945D01*
X75431Y-63911D01*
X75576Y-63814D01*
X75672Y-63670D01*
X75706Y-63500D01*
X75706Y-64500D01*
X75672Y-64329D01*
X75576Y-64185D01*
X75431Y-64088D01*
X75261Y-64055D01*
X74943Y-64055D01*
X74773Y-64088D01*
X74628Y-64185D01*
X74532Y-64329D01*
X74498Y-64500D01*
X74532Y-64670D01*
X74628Y-64814D01*
X74773Y-64911D01*
X74943Y-64945D01*
X75261Y-64945D01*
X75431Y-64911D01*
X75576Y-64814D01*
X75672Y-64670D01*
X75706Y-64500D01*
X75706Y-70200D01*
X74695Y-70200D01*
X74695Y-65765D01*
X74695Y-65175D01*
X74672Y-65120D01*
X74630Y-65077D01*
X74574Y-65055D01*
X74515Y-65054D01*
X74251Y-65054D01*
X74251Y-60250D01*
X74251Y-59250D01*
X74240Y-59191D01*
X74240Y-58515D01*
X74240Y-57925D01*
X74225Y-57888D01*
X74225Y-57407D01*
X74225Y-57050D01*
X74225Y-56950D01*
X74225Y-56592D01*
X74187Y-56555D01*
X73678Y-56554D01*
X73678Y-54618D01*
X73678Y-54381D01*
X73600Y-54220D01*
X73466Y-54108D01*
X73300Y-54055D01*
X73152Y-54055D01*
X73152Y-54450D01*
X73654Y-54450D01*
X73678Y-54381D01*
X73678Y-54618D01*
X73654Y-54550D01*
X73152Y-54550D01*
X73152Y-54945D01*
X73300Y-54945D01*
X73466Y-54891D01*
X73600Y-54779D01*
X73678Y-54618D01*
X73678Y-56554D01*
X73675Y-56554D01*
X73620Y-56577D01*
X73577Y-56619D01*
X73555Y-56675D01*
X73554Y-56734D01*
X73555Y-56912D01*
X73592Y-56950D01*
X74225Y-56950D01*
X74225Y-57050D01*
X73592Y-57050D01*
X73555Y-57087D01*
X73554Y-57265D01*
X73555Y-57324D01*
X73577Y-57380D01*
X73620Y-57422D01*
X73675Y-57445D01*
X74187Y-57445D01*
X74225Y-57407D01*
X74225Y-57888D01*
X74217Y-57870D01*
X74175Y-57827D01*
X74119Y-57805D01*
X74060Y-57804D01*
X73175Y-57804D01*
X73120Y-57827D01*
X73077Y-57869D01*
X73055Y-57925D01*
X73054Y-57984D01*
X73054Y-58574D01*
X73077Y-58629D01*
X73119Y-58672D01*
X73175Y-58694D01*
X73234Y-58695D01*
X74119Y-58695D01*
X74174Y-58672D01*
X74217Y-58630D01*
X74239Y-58574D01*
X74240Y-58515D01*
X74240Y-59191D01*
X74217Y-59079D01*
X74121Y-58935D01*
X73976Y-58838D01*
X73806Y-58805D01*
X73488Y-58805D01*
X73318Y-58838D01*
X73173Y-58935D01*
X73077Y-59079D01*
X73052Y-59204D01*
X73052Y-54945D01*
X73052Y-54550D01*
X73052Y-54450D01*
X73052Y-54055D01*
X72905Y-54055D01*
X72738Y-54108D01*
X72604Y-54220D01*
X72526Y-54381D01*
X72550Y-54450D01*
X73052Y-54450D01*
X73052Y-54550D01*
X72550Y-54550D01*
X72526Y-54618D01*
X72604Y-54779D01*
X72738Y-54891D01*
X72905Y-54945D01*
X73052Y-54945D01*
X73052Y-59204D01*
X73043Y-59250D01*
X73077Y-59420D01*
X73173Y-59564D01*
X73318Y-59661D01*
X73488Y-59695D01*
X73806Y-59695D01*
X73976Y-59661D01*
X74121Y-59564D01*
X74217Y-59420D01*
X74251Y-59250D01*
X74251Y-60250D01*
X74217Y-60079D01*
X74121Y-59935D01*
X73976Y-59838D01*
X73806Y-59805D01*
X73488Y-59805D01*
X73318Y-59838D01*
X73173Y-59935D01*
X73077Y-60079D01*
X73043Y-60250D01*
X73077Y-60420D01*
X73173Y-60564D01*
X73318Y-60661D01*
X73488Y-60695D01*
X73806Y-60695D01*
X73976Y-60661D01*
X74121Y-60564D01*
X74217Y-60420D01*
X74251Y-60250D01*
X74251Y-65054D01*
X74223Y-65054D01*
X74223Y-61368D01*
X74223Y-61131D01*
X74145Y-60970D01*
X74011Y-60858D01*
X73845Y-60805D01*
X73697Y-60805D01*
X73697Y-61200D01*
X74199Y-61200D01*
X74223Y-61131D01*
X74223Y-61368D01*
X74199Y-61300D01*
X73697Y-61300D01*
X73697Y-61695D01*
X73845Y-61695D01*
X74011Y-61641D01*
X74145Y-61529D01*
X74223Y-61368D01*
X74223Y-65054D01*
X73597Y-65054D01*
X73597Y-61695D01*
X73597Y-61300D01*
X73597Y-61200D01*
X73597Y-60805D01*
X73450Y-60805D01*
X73283Y-60858D01*
X73149Y-60970D01*
X73071Y-61131D01*
X73095Y-61200D01*
X73597Y-61200D01*
X73597Y-61300D01*
X73095Y-61300D01*
X73071Y-61368D01*
X73149Y-61529D01*
X73283Y-61641D01*
X73450Y-61695D01*
X73597Y-61695D01*
X73597Y-65054D01*
X73375Y-65054D01*
X73320Y-65077D01*
X73277Y-65119D01*
X73255Y-65175D01*
X73254Y-65234D01*
X73254Y-65824D01*
X73277Y-65879D01*
X73319Y-65922D01*
X73375Y-65944D01*
X73434Y-65945D01*
X74574Y-65945D01*
X74629Y-65922D01*
X74672Y-65880D01*
X74694Y-65824D01*
X74695Y-65765D01*
X74695Y-70200D01*
X74680Y-70200D01*
X74680Y-69051D01*
X74675Y-68984D01*
X74675Y-66915D01*
X74610Y-66759D01*
X74491Y-66639D01*
X74334Y-66575D01*
X74165Y-66574D01*
X74009Y-66639D01*
X73889Y-66758D01*
X73825Y-66915D01*
X73824Y-67084D01*
X73889Y-67240D01*
X74008Y-67360D01*
X74165Y-67424D01*
X74334Y-67425D01*
X74490Y-67360D01*
X74610Y-67241D01*
X74674Y-67084D01*
X74675Y-66915D01*
X74675Y-68984D01*
X74667Y-68883D01*
X74627Y-68787D01*
X74563Y-68757D01*
X74492Y-68828D01*
X74492Y-68686D01*
X74462Y-68622D01*
X74301Y-68569D01*
X74133Y-68582D01*
X74037Y-68622D01*
X74007Y-68686D01*
X74250Y-68929D01*
X74492Y-68686D01*
X74492Y-68828D01*
X74320Y-69000D01*
X74563Y-69242D01*
X74627Y-69212D01*
X74680Y-69051D01*
X74680Y-70200D01*
X74492Y-70200D01*
X74492Y-69313D01*
X74250Y-69070D01*
X74179Y-69141D01*
X74179Y-69000D01*
X73936Y-68757D01*
X73872Y-68787D01*
X73819Y-68948D01*
X73832Y-69116D01*
X73872Y-69212D01*
X73936Y-69242D01*
X74179Y-69000D01*
X74179Y-69141D01*
X74007Y-69313D01*
X74037Y-69377D01*
X74198Y-69430D01*
X74366Y-69417D01*
X74462Y-69377D01*
X74492Y-69313D01*
X74492Y-70200D01*
X73245Y-70200D01*
X73245Y-65765D01*
X73245Y-65234D01*
X73244Y-65175D01*
X73222Y-65119D01*
X73179Y-65077D01*
X73124Y-65054D01*
X72612Y-65055D01*
X72575Y-65092D01*
X72575Y-65450D01*
X73207Y-65450D01*
X73245Y-65412D01*
X73245Y-65234D01*
X73245Y-65765D01*
X73245Y-65587D01*
X73207Y-65550D01*
X72575Y-65550D01*
X72575Y-65907D01*
X72612Y-65945D01*
X73124Y-65945D01*
X73179Y-65922D01*
X73222Y-65880D01*
X73244Y-65824D01*
X73245Y-65765D01*
X73245Y-70200D01*
X72475Y-70200D01*
X72475Y-65907D01*
X72475Y-65550D01*
X72475Y-65450D01*
X72475Y-65092D01*
X72437Y-65055D01*
X72180Y-65054D01*
X72180Y-60664D01*
X72180Y-58664D01*
X72114Y-58506D01*
X71993Y-58385D01*
X71835Y-58320D01*
X71664Y-58319D01*
X71506Y-58385D01*
X71385Y-58506D01*
X71320Y-58664D01*
X71319Y-58835D01*
X71385Y-58993D01*
X71506Y-59114D01*
X71664Y-59179D01*
X71835Y-59180D01*
X71993Y-59114D01*
X72114Y-58993D01*
X72179Y-58835D01*
X72180Y-58664D01*
X72180Y-60664D01*
X72114Y-60506D01*
X71993Y-60385D01*
X71835Y-60320D01*
X71664Y-60319D01*
X71506Y-60385D01*
X71385Y-60506D01*
X71320Y-60664D01*
X71319Y-60835D01*
X71385Y-60993D01*
X71506Y-61114D01*
X71664Y-61179D01*
X71835Y-61180D01*
X71993Y-61114D01*
X72114Y-60993D01*
X72179Y-60835D01*
X72180Y-60664D01*
X72180Y-65054D01*
X72001Y-65054D01*
X72001Y-64500D01*
X72001Y-63500D01*
X71967Y-63329D01*
X71871Y-63185D01*
X71726Y-63088D01*
X71556Y-63055D01*
X71238Y-63055D01*
X71068Y-63088D01*
X70923Y-63185D01*
X70827Y-63329D01*
X70793Y-63500D01*
X70827Y-63670D01*
X70923Y-63814D01*
X71068Y-63911D01*
X71238Y-63945D01*
X71556Y-63945D01*
X71726Y-63911D01*
X71871Y-63814D01*
X71967Y-63670D01*
X72001Y-63500D01*
X72001Y-64500D01*
X71967Y-64329D01*
X71871Y-64185D01*
X71726Y-64088D01*
X71556Y-64055D01*
X71238Y-64055D01*
X71068Y-64088D01*
X70923Y-64185D01*
X70827Y-64329D01*
X70793Y-64500D01*
X70827Y-64670D01*
X70923Y-64814D01*
X71068Y-64911D01*
X71238Y-64945D01*
X71556Y-64945D01*
X71726Y-64911D01*
X71871Y-64814D01*
X71967Y-64670D01*
X72001Y-64500D01*
X72001Y-65054D01*
X71925Y-65054D01*
X71870Y-65077D01*
X71827Y-65119D01*
X71805Y-65175D01*
X71804Y-65234D01*
X71805Y-65412D01*
X71842Y-65450D01*
X72475Y-65450D01*
X72475Y-65550D01*
X71842Y-65550D01*
X71805Y-65587D01*
X71804Y-65765D01*
X71805Y-65824D01*
X71827Y-65880D01*
X71870Y-65922D01*
X71925Y-65945D01*
X72437Y-65945D01*
X72475Y-65907D01*
X72475Y-70200D01*
X71432Y-70200D01*
X71627Y-70004D01*
X71830Y-69515D01*
X71831Y-68986D01*
X71629Y-68496D01*
X71254Y-68122D01*
X70765Y-67919D01*
X70445Y-67918D01*
X70445Y-62574D01*
X70445Y-61375D01*
X70445Y-61065D01*
X70445Y-59925D01*
X70445Y-59515D01*
X70445Y-58375D01*
X70445Y-58124D01*
X70445Y-56925D01*
X70422Y-56870D01*
X70380Y-56827D01*
X70324Y-56805D01*
X70265Y-56804D01*
X70087Y-56805D01*
X70050Y-56842D01*
X70050Y-57475D01*
X70407Y-57475D01*
X70445Y-57437D01*
X70445Y-56925D01*
X70445Y-58124D01*
X70445Y-57612D01*
X70407Y-57575D01*
X70050Y-57575D01*
X70050Y-58207D01*
X70087Y-58245D01*
X70265Y-58245D01*
X70324Y-58244D01*
X70380Y-58222D01*
X70422Y-58179D01*
X70445Y-58124D01*
X70445Y-58375D01*
X70422Y-58320D01*
X70380Y-58277D01*
X70324Y-58255D01*
X70265Y-58254D01*
X69950Y-58254D01*
X69950Y-58207D01*
X69950Y-57575D01*
X69950Y-57475D01*
X69950Y-56842D01*
X69912Y-56805D01*
X69734Y-56804D01*
X69675Y-56805D01*
X69619Y-56827D01*
X69577Y-56870D01*
X69554Y-56925D01*
X69555Y-57437D01*
X69592Y-57475D01*
X69950Y-57475D01*
X69950Y-57575D01*
X69592Y-57575D01*
X69555Y-57612D01*
X69554Y-58124D01*
X69577Y-58179D01*
X69619Y-58222D01*
X69675Y-58244D01*
X69734Y-58245D01*
X69912Y-58245D01*
X69950Y-58207D01*
X69950Y-58254D01*
X69675Y-58254D01*
X69620Y-58277D01*
X69577Y-58319D01*
X69555Y-58375D01*
X69554Y-58434D01*
X69554Y-59574D01*
X69577Y-59629D01*
X69619Y-59672D01*
X69675Y-59694D01*
X69734Y-59695D01*
X70324Y-59695D01*
X70379Y-59672D01*
X70422Y-59630D01*
X70444Y-59574D01*
X70445Y-59515D01*
X70445Y-59925D01*
X70422Y-59870D01*
X70380Y-59827D01*
X70324Y-59805D01*
X70265Y-59804D01*
X69675Y-59804D01*
X69620Y-59827D01*
X69577Y-59869D01*
X69555Y-59925D01*
X69554Y-59984D01*
X69554Y-61124D01*
X69577Y-61179D01*
X69619Y-61222D01*
X69675Y-61244D01*
X69734Y-61245D01*
X70324Y-61245D01*
X70379Y-61222D01*
X70422Y-61180D01*
X70444Y-61124D01*
X70445Y-61065D01*
X70445Y-61375D01*
X70422Y-61320D01*
X70380Y-61277D01*
X70324Y-61255D01*
X70265Y-61254D01*
X70087Y-61255D01*
X70050Y-61292D01*
X70050Y-61925D01*
X70407Y-61925D01*
X70445Y-61887D01*
X70445Y-61375D01*
X70445Y-62574D01*
X70445Y-62062D01*
X70407Y-62025D01*
X70050Y-62025D01*
X70050Y-62657D01*
X70087Y-62695D01*
X70265Y-62695D01*
X70324Y-62694D01*
X70380Y-62672D01*
X70422Y-62629D01*
X70445Y-62574D01*
X70445Y-67918D01*
X70236Y-67918D01*
X69950Y-68037D01*
X69950Y-62657D01*
X69950Y-62025D01*
X69950Y-61925D01*
X69950Y-61292D01*
X69912Y-61255D01*
X69734Y-61254D01*
X69675Y-61255D01*
X69619Y-61277D01*
X69577Y-61320D01*
X69554Y-61375D01*
X69555Y-61887D01*
X69592Y-61925D01*
X69950Y-61925D01*
X69950Y-62025D01*
X69592Y-62025D01*
X69555Y-62062D01*
X69554Y-62574D01*
X69577Y-62629D01*
X69619Y-62672D01*
X69675Y-62694D01*
X69734Y-62695D01*
X69912Y-62695D01*
X69950Y-62657D01*
X69950Y-68037D01*
X69746Y-68120D01*
X69550Y-68317D01*
X69550Y-53182D01*
X69745Y-53377D01*
X70234Y-53580D01*
X70763Y-53581D01*
X71253Y-53379D01*
X71627Y-53004D01*
X71830Y-52515D01*
X71831Y-51986D01*
X71629Y-51496D01*
X71432Y-51300D01*
X72799Y-51300D01*
X72799Y-51829D01*
X72822Y-51884D01*
X72864Y-51927D01*
X72920Y-51949D01*
X72979Y-51950D01*
X73579Y-51950D01*
X73634Y-51927D01*
X73677Y-51885D01*
X73699Y-51829D01*
X73700Y-51770D01*
X73700Y-51300D01*
X73842Y-51300D01*
X73794Y-51442D01*
X73807Y-51620D01*
X73851Y-51727D01*
X73918Y-51760D01*
X74179Y-51500D01*
X74173Y-51494D01*
X74244Y-51423D01*
X74250Y-51429D01*
X74255Y-51423D01*
X74326Y-51494D01*
X74320Y-51500D01*
X74581Y-51760D01*
X74648Y-51727D01*
X74705Y-51557D01*
X74692Y-51379D01*
X74659Y-51300D01*
X80347Y-51300D01*
X80327Y-51329D01*
X80293Y-51500D01*
X80327Y-51670D01*
X80423Y-51814D01*
X80568Y-51911D01*
X80738Y-51945D01*
X81056Y-51945D01*
X81226Y-51911D01*
X81371Y-51814D01*
X81467Y-51670D01*
X81501Y-51500D01*
X81467Y-51329D01*
X81447Y-51300D01*
X84052Y-51300D01*
X84032Y-51329D01*
X83998Y-51500D01*
X84032Y-51670D01*
X84128Y-51814D01*
X84273Y-51911D01*
X84443Y-51945D01*
X84761Y-51945D01*
X84931Y-51911D01*
X85076Y-51814D01*
X85172Y-51670D01*
X85206Y-51500D01*
X85172Y-51329D01*
X85152Y-51300D01*
X86567Y-51300D01*
X86372Y-51495D01*
X86169Y-51984D01*
X86168Y-52513D01*
X86370Y-53003D01*
X86745Y-53377D01*
X87234Y-53580D01*
X87763Y-53581D01*
X88253Y-53379D01*
X88450Y-53182D01*
X88450Y-58920D01*
X88427Y-58865D01*
X88385Y-58822D01*
X88329Y-58800D01*
X88270Y-58799D01*
X87670Y-58799D01*
X87615Y-58822D01*
X87572Y-58864D01*
X87550Y-58920D01*
X87549Y-58979D01*
X87549Y-59579D01*
X87572Y-59634D01*
X87614Y-59677D01*
X87670Y-59699D01*
X87729Y-59700D01*
X88329Y-59700D01*
X88384Y-59677D01*
X88427Y-59635D01*
X88449Y-59579D01*
X88450Y-59550D01*
X88450Y-60160D01*
X88381Y-59995D01*
X88255Y-59868D01*
X88089Y-59800D01*
X87910Y-59799D01*
X87745Y-59868D01*
X87618Y-59994D01*
X87550Y-60160D01*
X87549Y-60339D01*
X87618Y-60504D01*
X87744Y-60631D01*
X87910Y-60699D01*
X88089Y-60700D01*
X88254Y-60631D01*
X88381Y-60505D01*
X88449Y-60339D01*
X88450Y-60249D01*
X88450Y-61160D01*
X88381Y-60995D01*
X88255Y-60868D01*
X88089Y-60800D01*
X87910Y-60799D01*
X87745Y-60868D01*
X87618Y-60994D01*
X87550Y-61160D01*
X87549Y-61339D01*
X87618Y-61504D01*
X87744Y-61631D01*
X87910Y-61699D01*
X88089Y-61700D01*
X88254Y-61631D01*
X88381Y-61505D01*
X88449Y-61339D01*
X88450Y-61249D01*
X88450Y-62234D01*
X88442Y-62129D01*
X88398Y-62022D01*
X88331Y-61989D01*
X88260Y-62060D01*
X88260Y-61918D01*
X88227Y-61851D01*
X88057Y-61794D01*
X87879Y-61807D01*
X87772Y-61851D01*
X87739Y-61918D01*
X88000Y-62179D01*
X88260Y-61918D01*
X88260Y-62060D01*
X88070Y-62250D01*
X88331Y-62510D01*
X88398Y-62477D01*
X88450Y-62323D01*
X88450Y-68317D01*
M02*
