M48
;DRILL file {Pcbnew (2013-07-07 BZR 4022)-stable} date 5/22/2015 10:04:39 PM
;FORMAT={-:-/ absolute / inch / decimal}
FMAT,2
INCH,TZ
T1C0.030
T2C0.032
T3C0.040
T4C0.056
T5C0.126
%
G90
G05
M72
T1
X7.175Y-5.875
X7.175Y-6.075
T2
X7.Y-5.725
X7.Y-5.925
X7.Y-6.025
X7.Y-6.225
X7.125Y-6.35
X7.125Y-6.45
X7.225Y-6.55
X7.325Y-5.45
X7.35Y-5.825
X7.35Y-5.925
X7.35Y-6.025
X7.35Y-6.125
X7.4Y-5.7
X7.425Y-5.45
X7.425Y-6.55
X7.425Y-6.7
X7.425Y-6.9
X7.525Y-6.35
X7.525Y-6.45
X7.6Y-5.7
X7.65Y-5.35
X7.65Y-5.45
X7.65Y-5.825
X7.65Y-5.925
X7.65Y-6.025
X7.65Y-6.125
X7.725Y-6.7
X7.725Y-6.9
X7.8Y-5.675
X7.8Y-5.875
X7.8Y-6.275
X7.8Y-6.475
X7.85Y-5.35
X7.85Y-5.45
X7.9Y-5.575
X7.9Y-5.975
X7.9Y-6.175
X7.9Y-6.575
X8.Y-5.575
X8.Y-5.975
X8.Y-6.175
X8.Y-6.575
X8.075Y-5.15
X8.1Y-5.575
X8.1Y-5.975
X8.1Y-6.175
X8.1Y-6.575
X8.125Y-7.
X8.225Y-5.725
X8.225Y-5.825
X8.225Y-6.325
X8.225Y-6.425
X8.275Y-5.775
X8.275Y-6.375
X8.475Y-5.15
X8.525Y-7.
T3
X7.325Y-5.15
X7.425Y-5.15
X7.65Y-5.2
X7.75Y-5.2
X7.85Y-5.2
X8.275Y-5.275
X8.275Y-5.375
X8.325Y-6.775
X8.325Y-6.875
X8.425Y-5.9
X8.425Y-6.25
X8.525Y-5.9
X8.525Y-6.25
X8.8Y-5.925
X8.8Y-6.025
X8.8Y-6.125
X8.8Y-6.225
T4
X8.7Y-5.525
X8.7Y-5.725
X8.7Y-6.425
X8.7Y-6.625
T5
X7.05Y-5.225
X7.05Y-6.925
X8.75Y-5.225
X8.75Y-6.925
T0
M30
