G04 (created by PCBNEW (2013-07-07 BZR 4022)-stable) date 5/22/2015 10:04:36 PM*
%MOIN*%
G04 Gerber Fmt 3.4, Leading zero omitted, Abs format*
%FSLAX34Y34*%
G01*
G70*
G90*
G04 APERTURE LIST*
%ADD10C,0.00590551*%
%ADD11C,0.006*%
%ADD12C,0.005*%
%ADD13C,0.007*%
%ADD14C,0.012*%
%ADD15C,0.0001*%
G04 APERTURE END LIST*
G54D10*
G54D11*
X80957Y-67871D02*
X80957Y-67571D01*
X80857Y-67785D01*
X80757Y-67571D01*
X80757Y-67871D01*
X80485Y-67871D02*
X80485Y-67714D01*
X80500Y-67685D01*
X80528Y-67671D01*
X80585Y-67671D01*
X80614Y-67685D01*
X80485Y-67857D02*
X80514Y-67871D01*
X80585Y-67871D01*
X80614Y-67857D01*
X80628Y-67828D01*
X80628Y-67800D01*
X80614Y-67771D01*
X80585Y-67757D01*
X80514Y-67757D01*
X80485Y-67742D01*
X80342Y-67871D02*
X80342Y-67671D01*
X80342Y-67728D02*
X80328Y-67700D01*
X80314Y-67685D01*
X80285Y-67671D01*
X80257Y-67671D01*
X80028Y-67857D02*
X80057Y-67871D01*
X80114Y-67871D01*
X80142Y-67857D01*
X80157Y-67842D01*
X80171Y-67814D01*
X80171Y-67728D01*
X80157Y-67700D01*
X80142Y-67685D01*
X80114Y-67671D01*
X80057Y-67671D01*
X80028Y-67685D01*
X79857Y-67871D02*
X79885Y-67857D01*
X79900Y-67842D01*
X79914Y-67814D01*
X79914Y-67728D01*
X79900Y-67700D01*
X79885Y-67685D01*
X79857Y-67671D01*
X79814Y-67671D01*
X79785Y-67685D01*
X79771Y-67700D01*
X79757Y-67728D01*
X79757Y-67814D01*
X79771Y-67842D01*
X79785Y-67857D01*
X79814Y-67871D01*
X79857Y-67871D01*
X79400Y-67871D02*
X79400Y-67571D01*
X79285Y-67571D01*
X79257Y-67585D01*
X79242Y-67600D01*
X79228Y-67628D01*
X79228Y-67671D01*
X79242Y-67700D01*
X79257Y-67714D01*
X79285Y-67728D01*
X79400Y-67728D01*
X79057Y-67871D02*
X79085Y-67857D01*
X79100Y-67842D01*
X79114Y-67814D01*
X79114Y-67728D01*
X79100Y-67700D01*
X79085Y-67685D01*
X79057Y-67671D01*
X79014Y-67671D01*
X78985Y-67685D01*
X78971Y-67700D01*
X78957Y-67728D01*
X78957Y-67814D01*
X78971Y-67842D01*
X78985Y-67857D01*
X79014Y-67871D01*
X79057Y-67871D01*
X78785Y-67871D02*
X78814Y-67857D01*
X78828Y-67828D01*
X78828Y-67571D01*
X78628Y-67871D02*
X78657Y-67857D01*
X78671Y-67842D01*
X78685Y-67814D01*
X78685Y-67728D01*
X78671Y-67700D01*
X78657Y-67685D01*
X78628Y-67671D01*
X78585Y-67671D01*
X78557Y-67685D01*
X78542Y-67700D01*
X78528Y-67728D01*
X78528Y-67814D01*
X78542Y-67842D01*
X78557Y-67857D01*
X78585Y-67871D01*
X78628Y-67871D01*
X81621Y-68051D02*
X81449Y-68051D01*
X81535Y-68351D02*
X81535Y-68051D01*
X81392Y-68051D02*
X81221Y-68051D01*
X81307Y-68351D02*
X81307Y-68051D01*
X80978Y-68351D02*
X81121Y-68351D01*
X81121Y-68051D01*
X80664Y-68337D02*
X80621Y-68351D01*
X80550Y-68351D01*
X80521Y-68337D01*
X80507Y-68322D01*
X80492Y-68294D01*
X80492Y-68265D01*
X80507Y-68237D01*
X80521Y-68222D01*
X80550Y-68208D01*
X80607Y-68194D01*
X80635Y-68180D01*
X80650Y-68165D01*
X80664Y-68137D01*
X80664Y-68108D01*
X80650Y-68080D01*
X80635Y-68065D01*
X80607Y-68051D01*
X80535Y-68051D01*
X80492Y-68065D01*
X80250Y-68337D02*
X80278Y-68351D01*
X80335Y-68351D01*
X80364Y-68337D01*
X80378Y-68308D01*
X80378Y-68194D01*
X80364Y-68165D01*
X80335Y-68151D01*
X80278Y-68151D01*
X80250Y-68165D01*
X80235Y-68194D01*
X80235Y-68222D01*
X80378Y-68251D01*
X80107Y-68351D02*
X80107Y-68151D01*
X80107Y-68208D02*
X80092Y-68180D01*
X80078Y-68165D01*
X80050Y-68151D01*
X80021Y-68151D01*
X79921Y-68351D02*
X79921Y-68151D01*
X79921Y-68051D02*
X79935Y-68065D01*
X79921Y-68080D01*
X79907Y-68065D01*
X79921Y-68051D01*
X79921Y-68080D01*
X79650Y-68351D02*
X79650Y-68194D01*
X79664Y-68165D01*
X79692Y-68151D01*
X79750Y-68151D01*
X79778Y-68165D01*
X79650Y-68337D02*
X79678Y-68351D01*
X79750Y-68351D01*
X79778Y-68337D01*
X79792Y-68308D01*
X79792Y-68280D01*
X79778Y-68251D01*
X79750Y-68237D01*
X79678Y-68237D01*
X79650Y-68222D01*
X79464Y-68351D02*
X79492Y-68337D01*
X79507Y-68308D01*
X79507Y-68051D01*
X79164Y-68051D02*
X78992Y-68051D01*
X79078Y-68351D02*
X79078Y-68051D01*
X78778Y-68337D02*
X78807Y-68351D01*
X78864Y-68351D01*
X78892Y-68337D01*
X78907Y-68308D01*
X78907Y-68194D01*
X78892Y-68165D01*
X78864Y-68151D01*
X78807Y-68151D01*
X78778Y-68165D01*
X78764Y-68194D01*
X78764Y-68222D01*
X78907Y-68251D01*
X78650Y-68337D02*
X78621Y-68351D01*
X78564Y-68351D01*
X78535Y-68337D01*
X78521Y-68308D01*
X78521Y-68294D01*
X78535Y-68265D01*
X78564Y-68251D01*
X78607Y-68251D01*
X78635Y-68237D01*
X78650Y-68208D01*
X78650Y-68194D01*
X78635Y-68165D01*
X78607Y-68151D01*
X78564Y-68151D01*
X78535Y-68165D01*
X78435Y-68151D02*
X78321Y-68151D01*
X78392Y-68051D02*
X78392Y-68308D01*
X78378Y-68337D01*
X78350Y-68351D01*
X78321Y-68351D01*
X78107Y-68337D02*
X78135Y-68351D01*
X78192Y-68351D01*
X78221Y-68337D01*
X78235Y-68308D01*
X78235Y-68194D01*
X78221Y-68165D01*
X78192Y-68151D01*
X78135Y-68151D01*
X78107Y-68165D01*
X78092Y-68194D01*
X78092Y-68222D01*
X78235Y-68251D01*
X77964Y-68351D02*
X77964Y-68151D01*
X77964Y-68208D02*
X77950Y-68180D01*
X77935Y-68165D01*
X77907Y-68151D01*
X77878Y-68151D01*
X79964Y-68631D02*
X79892Y-68831D01*
X79821Y-68631D01*
X79550Y-68831D02*
X79721Y-68831D01*
X79635Y-68831D02*
X79635Y-68531D01*
X79664Y-68574D01*
X79692Y-68602D01*
X79721Y-68617D01*
G54D12*
X86178Y-60684D02*
X86178Y-60886D01*
X86190Y-60910D01*
X86202Y-60922D01*
X86226Y-60934D01*
X86261Y-60934D01*
X86285Y-60922D01*
X86178Y-60839D02*
X86202Y-60851D01*
X86250Y-60851D01*
X86273Y-60839D01*
X86285Y-60827D01*
X86297Y-60803D01*
X86297Y-60732D01*
X86285Y-60708D01*
X86273Y-60696D01*
X86250Y-60684D01*
X86202Y-60684D01*
X86178Y-60696D01*
X86059Y-60851D02*
X86059Y-60684D01*
X86059Y-60601D02*
X86071Y-60613D01*
X86059Y-60625D01*
X86047Y-60613D01*
X86059Y-60601D01*
X86059Y-60625D01*
X85976Y-60684D02*
X85880Y-60684D01*
X85940Y-60601D02*
X85940Y-60815D01*
X85928Y-60839D01*
X85904Y-60851D01*
X85880Y-60851D01*
X85797Y-60851D02*
X85797Y-60601D01*
X85690Y-60851D02*
X85690Y-60720D01*
X85702Y-60696D01*
X85726Y-60684D01*
X85761Y-60684D01*
X85785Y-60696D01*
X85797Y-60708D01*
X85464Y-60684D02*
X85464Y-60851D01*
X85571Y-60684D02*
X85571Y-60815D01*
X85559Y-60839D01*
X85535Y-60851D01*
X85500Y-60851D01*
X85476Y-60839D01*
X85464Y-60827D01*
X85345Y-60851D02*
X85345Y-60601D01*
X85345Y-60696D02*
X85321Y-60684D01*
X85273Y-60684D01*
X85250Y-60696D01*
X85238Y-60708D01*
X85226Y-60732D01*
X85226Y-60803D01*
X85238Y-60827D01*
X85250Y-60839D01*
X85273Y-60851D01*
X85321Y-60851D01*
X85345Y-60839D01*
X85119Y-60827D02*
X85107Y-60839D01*
X85119Y-60851D01*
X85130Y-60839D01*
X85119Y-60827D01*
X85119Y-60851D01*
X84892Y-60839D02*
X84916Y-60851D01*
X84964Y-60851D01*
X84988Y-60839D01*
X85000Y-60827D01*
X85011Y-60803D01*
X85011Y-60732D01*
X85000Y-60708D01*
X84988Y-60696D01*
X84964Y-60684D01*
X84916Y-60684D01*
X84892Y-60696D01*
X84750Y-60851D02*
X84773Y-60839D01*
X84785Y-60827D01*
X84797Y-60803D01*
X84797Y-60732D01*
X84785Y-60708D01*
X84773Y-60696D01*
X84750Y-60684D01*
X84714Y-60684D01*
X84690Y-60696D01*
X84678Y-60708D01*
X84666Y-60732D01*
X84666Y-60803D01*
X84678Y-60827D01*
X84690Y-60839D01*
X84714Y-60851D01*
X84750Y-60851D01*
X84559Y-60851D02*
X84559Y-60684D01*
X84559Y-60708D02*
X84547Y-60696D01*
X84523Y-60684D01*
X84488Y-60684D01*
X84464Y-60696D01*
X84452Y-60720D01*
X84452Y-60851D01*
X84452Y-60720D02*
X84440Y-60696D01*
X84416Y-60684D01*
X84380Y-60684D01*
X84357Y-60696D01*
X84345Y-60720D01*
X84345Y-60851D01*
X84047Y-60589D02*
X84261Y-60910D01*
X83964Y-60684D02*
X83964Y-60934D01*
X83964Y-60696D02*
X83940Y-60684D01*
X83892Y-60684D01*
X83869Y-60696D01*
X83857Y-60708D01*
X83845Y-60732D01*
X83845Y-60803D01*
X83857Y-60827D01*
X83869Y-60839D01*
X83892Y-60851D01*
X83940Y-60851D01*
X83964Y-60839D01*
X83642Y-60839D02*
X83666Y-60851D01*
X83714Y-60851D01*
X83738Y-60839D01*
X83750Y-60815D01*
X83750Y-60720D01*
X83738Y-60696D01*
X83714Y-60684D01*
X83666Y-60684D01*
X83642Y-60696D01*
X83630Y-60720D01*
X83630Y-60744D01*
X83750Y-60767D01*
X83523Y-60684D02*
X83523Y-60934D01*
X83523Y-60696D02*
X83500Y-60684D01*
X83452Y-60684D01*
X83428Y-60696D01*
X83416Y-60708D01*
X83404Y-60732D01*
X83404Y-60803D01*
X83416Y-60827D01*
X83428Y-60839D01*
X83452Y-60851D01*
X83500Y-60851D01*
X83523Y-60839D01*
X83190Y-60851D02*
X83190Y-60720D01*
X83202Y-60696D01*
X83226Y-60684D01*
X83273Y-60684D01*
X83297Y-60696D01*
X83190Y-60839D02*
X83214Y-60851D01*
X83273Y-60851D01*
X83297Y-60839D01*
X83309Y-60815D01*
X83309Y-60791D01*
X83297Y-60767D01*
X83273Y-60755D01*
X83214Y-60755D01*
X83190Y-60744D01*
X83083Y-60839D02*
X83059Y-60851D01*
X83011Y-60851D01*
X82988Y-60839D01*
X82976Y-60815D01*
X82976Y-60803D01*
X82988Y-60779D01*
X83011Y-60767D01*
X83047Y-60767D01*
X83071Y-60755D01*
X83083Y-60732D01*
X83083Y-60720D01*
X83071Y-60696D01*
X83047Y-60684D01*
X83011Y-60684D01*
X82988Y-60696D01*
X82833Y-60851D02*
X82857Y-60839D01*
X82869Y-60815D01*
X82869Y-60601D01*
X82630Y-60851D02*
X82630Y-60720D01*
X82642Y-60696D01*
X82666Y-60684D01*
X82714Y-60684D01*
X82738Y-60696D01*
X82630Y-60839D02*
X82654Y-60851D01*
X82714Y-60851D01*
X82738Y-60839D01*
X82750Y-60815D01*
X82750Y-60791D01*
X82738Y-60767D01*
X82714Y-60755D01*
X82654Y-60755D01*
X82630Y-60744D01*
X82511Y-60851D02*
X82511Y-60601D01*
X82511Y-60696D02*
X82488Y-60684D01*
X82440Y-60684D01*
X82416Y-60696D01*
X82404Y-60708D01*
X82392Y-60732D01*
X82392Y-60803D01*
X82404Y-60827D01*
X82416Y-60839D01*
X82440Y-60851D01*
X82488Y-60851D01*
X82511Y-60839D01*
X82297Y-60839D02*
X82273Y-60851D01*
X82226Y-60851D01*
X82202Y-60839D01*
X82190Y-60815D01*
X82190Y-60803D01*
X82202Y-60779D01*
X82226Y-60767D01*
X82261Y-60767D01*
X82285Y-60755D01*
X82297Y-60732D01*
X82297Y-60720D01*
X82285Y-60696D01*
X82261Y-60684D01*
X82226Y-60684D01*
X82202Y-60696D01*
X81904Y-60589D02*
X82119Y-60910D01*
X81821Y-60851D02*
X81821Y-60601D01*
X81738Y-60779D01*
X81654Y-60601D01*
X81654Y-60851D01*
X81428Y-60851D02*
X81428Y-60720D01*
X81440Y-60696D01*
X81464Y-60684D01*
X81511Y-60684D01*
X81535Y-60696D01*
X81428Y-60839D02*
X81452Y-60851D01*
X81511Y-60851D01*
X81535Y-60839D01*
X81547Y-60815D01*
X81547Y-60791D01*
X81535Y-60767D01*
X81511Y-60755D01*
X81452Y-60755D01*
X81428Y-60744D01*
X81309Y-60851D02*
X81309Y-60684D01*
X81309Y-60732D02*
X81297Y-60708D01*
X81285Y-60696D01*
X81261Y-60684D01*
X81238Y-60684D01*
X81047Y-60839D02*
X81071Y-60851D01*
X81119Y-60851D01*
X81142Y-60839D01*
X81154Y-60827D01*
X81166Y-60803D01*
X81166Y-60732D01*
X81154Y-60708D01*
X81142Y-60696D01*
X81119Y-60684D01*
X81071Y-60684D01*
X81047Y-60696D01*
X80904Y-60851D02*
X80928Y-60839D01*
X80940Y-60827D01*
X80952Y-60803D01*
X80952Y-60732D01*
X80940Y-60708D01*
X80928Y-60696D01*
X80904Y-60684D01*
X80869Y-60684D01*
X80845Y-60696D01*
X80833Y-60708D01*
X80821Y-60732D01*
X80821Y-60803D01*
X80833Y-60827D01*
X80845Y-60839D01*
X80869Y-60851D01*
X80904Y-60851D01*
X80714Y-60851D02*
X80714Y-60601D01*
X80619Y-60601D01*
X80595Y-60613D01*
X80583Y-60625D01*
X80571Y-60648D01*
X80571Y-60684D01*
X80583Y-60708D01*
X80595Y-60720D01*
X80619Y-60732D01*
X80714Y-60732D01*
X80428Y-60851D02*
X80452Y-60839D01*
X80464Y-60827D01*
X80476Y-60803D01*
X80476Y-60732D01*
X80464Y-60708D01*
X80452Y-60696D01*
X80428Y-60684D01*
X80392Y-60684D01*
X80369Y-60696D01*
X80357Y-60708D01*
X80345Y-60732D01*
X80345Y-60803D01*
X80357Y-60827D01*
X80369Y-60839D01*
X80392Y-60851D01*
X80428Y-60851D01*
X80202Y-60851D02*
X80226Y-60839D01*
X80238Y-60815D01*
X80238Y-60601D01*
X80071Y-60851D02*
X80095Y-60839D01*
X80107Y-60827D01*
X80119Y-60803D01*
X80119Y-60732D01*
X80107Y-60708D01*
X80095Y-60696D01*
X80071Y-60684D01*
X80035Y-60684D01*
X80011Y-60696D01*
X80000Y-60708D01*
X79988Y-60732D01*
X79988Y-60803D01*
X80000Y-60827D01*
X80011Y-60839D01*
X80035Y-60851D01*
X80071Y-60851D01*
X79916Y-60601D02*
X79773Y-60601D01*
X79845Y-60851D02*
X79845Y-60601D01*
X79726Y-60601D02*
X79583Y-60601D01*
X79654Y-60851D02*
X79654Y-60601D01*
X79380Y-60851D02*
X79499Y-60851D01*
X79499Y-60601D01*
X79309Y-60839D02*
X79273Y-60851D01*
X79214Y-60851D01*
X79190Y-60839D01*
X79178Y-60827D01*
X79166Y-60803D01*
X79166Y-60779D01*
X79178Y-60755D01*
X79190Y-60744D01*
X79214Y-60732D01*
X79261Y-60720D01*
X79285Y-60708D01*
X79297Y-60696D01*
X79309Y-60672D01*
X79309Y-60648D01*
X79297Y-60625D01*
X79285Y-60613D01*
X79261Y-60601D01*
X79202Y-60601D01*
X79166Y-60613D01*
X78964Y-60839D02*
X78988Y-60851D01*
X79035Y-60851D01*
X79059Y-60839D01*
X79071Y-60815D01*
X79071Y-60720D01*
X79059Y-60696D01*
X79035Y-60684D01*
X78988Y-60684D01*
X78964Y-60696D01*
X78952Y-60720D01*
X78952Y-60744D01*
X79071Y-60767D01*
X78845Y-60851D02*
X78845Y-60684D01*
X78845Y-60732D02*
X78833Y-60708D01*
X78821Y-60696D01*
X78797Y-60684D01*
X78773Y-60684D01*
X78690Y-60851D02*
X78690Y-60684D01*
X78690Y-60601D02*
X78702Y-60613D01*
X78690Y-60625D01*
X78678Y-60613D01*
X78690Y-60601D01*
X78690Y-60625D01*
X78464Y-60851D02*
X78464Y-60720D01*
X78476Y-60696D01*
X78499Y-60684D01*
X78547Y-60684D01*
X78571Y-60696D01*
X78464Y-60839D02*
X78488Y-60851D01*
X78547Y-60851D01*
X78571Y-60839D01*
X78583Y-60815D01*
X78583Y-60791D01*
X78571Y-60767D01*
X78547Y-60755D01*
X78488Y-60755D01*
X78464Y-60744D01*
X78309Y-60851D02*
X78333Y-60839D01*
X78345Y-60815D01*
X78345Y-60601D01*
X78249Y-60601D02*
X78107Y-60601D01*
X78178Y-60851D02*
X78178Y-60601D01*
X77928Y-60839D02*
X77952Y-60851D01*
X77999Y-60851D01*
X78023Y-60839D01*
X78035Y-60815D01*
X78035Y-60720D01*
X78023Y-60696D01*
X77999Y-60684D01*
X77952Y-60684D01*
X77928Y-60696D01*
X77916Y-60720D01*
X77916Y-60744D01*
X78035Y-60767D01*
X77821Y-60839D02*
X77797Y-60851D01*
X77749Y-60851D01*
X77726Y-60839D01*
X77714Y-60815D01*
X77714Y-60803D01*
X77726Y-60779D01*
X77749Y-60767D01*
X77785Y-60767D01*
X77809Y-60755D01*
X77821Y-60732D01*
X77821Y-60720D01*
X77809Y-60696D01*
X77785Y-60684D01*
X77749Y-60684D01*
X77726Y-60696D01*
X77642Y-60684D02*
X77547Y-60684D01*
X77607Y-60601D02*
X77607Y-60815D01*
X77595Y-60839D01*
X77571Y-60851D01*
X77547Y-60851D01*
X77369Y-60839D02*
X77392Y-60851D01*
X77440Y-60851D01*
X77464Y-60839D01*
X77476Y-60815D01*
X77476Y-60720D01*
X77464Y-60696D01*
X77440Y-60684D01*
X77392Y-60684D01*
X77369Y-60696D01*
X77357Y-60720D01*
X77357Y-60744D01*
X77476Y-60767D01*
X77249Y-60851D02*
X77249Y-60684D01*
X77249Y-60732D02*
X77238Y-60708D01*
X77226Y-60696D01*
X77202Y-60684D01*
X77178Y-60684D01*
G54D13*
X86983Y-62058D02*
X87016Y-62041D01*
X87066Y-62041D01*
X87116Y-62058D01*
X87150Y-62091D01*
X87166Y-62125D01*
X87183Y-62191D01*
X87183Y-62241D01*
X87166Y-62308D01*
X87150Y-62341D01*
X87116Y-62375D01*
X87066Y-62391D01*
X87033Y-62391D01*
X86983Y-62375D01*
X86966Y-62358D01*
X86966Y-62241D01*
X87033Y-62241D01*
X86816Y-62391D02*
X86816Y-62041D01*
X86616Y-62391D01*
X86616Y-62041D01*
X86450Y-62391D02*
X86450Y-62041D01*
X86366Y-62041D01*
X86316Y-62058D01*
X86283Y-62091D01*
X86266Y-62125D01*
X86250Y-62191D01*
X86250Y-62241D01*
X86266Y-62308D01*
X86283Y-62341D01*
X86316Y-62375D01*
X86366Y-62391D01*
X86450Y-62391D01*
X86966Y-61391D02*
X87083Y-61225D01*
X87166Y-61391D02*
X87166Y-61041D01*
X87033Y-61041D01*
X87000Y-61058D01*
X86983Y-61075D01*
X86966Y-61108D01*
X86966Y-61158D01*
X86983Y-61191D01*
X87000Y-61208D01*
X87033Y-61225D01*
X87166Y-61225D01*
X86850Y-61041D02*
X86616Y-61391D01*
X86616Y-61041D02*
X86850Y-61391D01*
X87216Y-60041D02*
X87016Y-60041D01*
X87116Y-60391D02*
X87116Y-60041D01*
X86933Y-60041D02*
X86700Y-60391D01*
X86700Y-60041D02*
X86933Y-60391D01*
X87216Y-59041D02*
X87100Y-59391D01*
X86983Y-59041D01*
X86666Y-59358D02*
X86683Y-59375D01*
X86733Y-59391D01*
X86766Y-59391D01*
X86816Y-59375D01*
X86850Y-59341D01*
X86866Y-59308D01*
X86883Y-59241D01*
X86883Y-59191D01*
X86866Y-59125D01*
X86850Y-59091D01*
X86816Y-59058D01*
X86766Y-59041D01*
X86733Y-59041D01*
X86683Y-59058D01*
X86666Y-59075D01*
X86316Y-59358D02*
X86333Y-59375D01*
X86383Y-59391D01*
X86416Y-59391D01*
X86466Y-59375D01*
X86500Y-59341D01*
X86516Y-59308D01*
X86533Y-59241D01*
X86533Y-59191D01*
X86516Y-59125D01*
X86500Y-59091D01*
X86466Y-59058D01*
X86416Y-59041D01*
X86383Y-59041D01*
X86333Y-59058D01*
X86316Y-59075D01*
G54D14*
X74478Y-52514D02*
X74021Y-52514D01*
X73478Y-52514D02*
X73021Y-52514D01*
X73249Y-52742D02*
X73249Y-52285D01*
G54D15*
G36*
X71727Y-55957D02*
X71719Y-55953D01*
X71700Y-55941D01*
X71674Y-55924D01*
X71643Y-55903D01*
X71612Y-55882D01*
X71586Y-55865D01*
X71568Y-55853D01*
X71561Y-55849D01*
X71557Y-55850D01*
X71542Y-55858D01*
X71520Y-55869D01*
X71508Y-55875D01*
X71488Y-55884D01*
X71478Y-55886D01*
X71477Y-55883D01*
X71469Y-55868D01*
X71458Y-55842D01*
X71443Y-55808D01*
X71426Y-55768D01*
X71408Y-55725D01*
X71390Y-55681D01*
X71372Y-55639D01*
X71357Y-55601D01*
X71344Y-55571D01*
X71336Y-55549D01*
X71333Y-55540D01*
X71334Y-55538D01*
X71344Y-55529D01*
X71361Y-55516D01*
X71399Y-55485D01*
X71435Y-55439D01*
X71458Y-55387D01*
X71465Y-55329D01*
X71459Y-55276D01*
X71438Y-55225D01*
X71402Y-55178D01*
X71358Y-55144D01*
X71307Y-55122D01*
X71250Y-55115D01*
X71195Y-55121D01*
X71143Y-55142D01*
X71096Y-55177D01*
X71077Y-55200D01*
X71050Y-55247D01*
X71034Y-55297D01*
X71033Y-55309D01*
X71035Y-55365D01*
X71051Y-55418D01*
X71080Y-55465D01*
X71121Y-55504D01*
X71126Y-55508D01*
X71145Y-55522D01*
X71157Y-55531D01*
X71167Y-55539D01*
X71097Y-55709D01*
X71086Y-55736D01*
X71066Y-55782D01*
X71049Y-55822D01*
X71036Y-55854D01*
X71026Y-55875D01*
X71022Y-55884D01*
X71022Y-55884D01*
X71016Y-55885D01*
X71003Y-55880D01*
X70979Y-55869D01*
X70963Y-55861D01*
X70945Y-55852D01*
X70937Y-55849D01*
X70930Y-55853D01*
X70913Y-55864D01*
X70888Y-55881D01*
X70858Y-55901D01*
X70829Y-55921D01*
X70802Y-55939D01*
X70783Y-55951D01*
X70773Y-55956D01*
X70772Y-55956D01*
X70764Y-55951D01*
X70748Y-55939D01*
X70725Y-55917D01*
X70693Y-55885D01*
X70688Y-55880D01*
X70661Y-55852D01*
X70639Y-55829D01*
X70624Y-55813D01*
X70619Y-55806D01*
X70619Y-55806D01*
X70624Y-55796D01*
X70636Y-55777D01*
X70654Y-55750D01*
X70675Y-55719D01*
X70731Y-55637D01*
X70700Y-55560D01*
X70691Y-55537D01*
X70679Y-55508D01*
X70670Y-55488D01*
X70665Y-55479D01*
X70657Y-55476D01*
X70636Y-55471D01*
X70605Y-55464D01*
X70569Y-55458D01*
X70534Y-55451D01*
X70503Y-55445D01*
X70480Y-55441D01*
X70470Y-55439D01*
X70468Y-55437D01*
X70466Y-55432D01*
X70464Y-55422D01*
X70464Y-55403D01*
X70463Y-55373D01*
X70463Y-55329D01*
X70463Y-55325D01*
X70464Y-55283D01*
X70464Y-55250D01*
X70465Y-55229D01*
X70467Y-55221D01*
X70467Y-55221D01*
X70477Y-55218D01*
X70499Y-55214D01*
X70530Y-55207D01*
X70568Y-55200D01*
X70570Y-55200D01*
X70607Y-55193D01*
X70638Y-55186D01*
X70660Y-55181D01*
X70669Y-55178D01*
X70671Y-55176D01*
X70679Y-55161D01*
X70690Y-55138D01*
X70702Y-55110D01*
X70714Y-55081D01*
X70725Y-55054D01*
X70732Y-55035D01*
X70734Y-55026D01*
X70734Y-55026D01*
X70728Y-55017D01*
X70715Y-54997D01*
X70697Y-54971D01*
X70675Y-54939D01*
X70674Y-54936D01*
X70652Y-54905D01*
X70635Y-54878D01*
X70623Y-54859D01*
X70619Y-54851D01*
X70619Y-54850D01*
X70626Y-54841D01*
X70642Y-54823D01*
X70665Y-54799D01*
X70693Y-54771D01*
X70702Y-54763D01*
X70732Y-54733D01*
X70753Y-54713D01*
X70767Y-54703D01*
X70773Y-54700D01*
X70773Y-54701D01*
X70783Y-54706D01*
X70803Y-54719D01*
X70830Y-54738D01*
X70862Y-54759D01*
X70864Y-54761D01*
X70895Y-54782D01*
X70921Y-54800D01*
X70940Y-54812D01*
X70948Y-54817D01*
X70950Y-54817D01*
X70962Y-54813D01*
X70985Y-54806D01*
X71012Y-54795D01*
X71041Y-54783D01*
X71068Y-54772D01*
X71088Y-54763D01*
X71097Y-54758D01*
X71097Y-54757D01*
X71101Y-54746D01*
X71106Y-54722D01*
X71113Y-54690D01*
X71120Y-54651D01*
X71121Y-54645D01*
X71128Y-54608D01*
X71134Y-54577D01*
X71139Y-54555D01*
X71141Y-54546D01*
X71146Y-54545D01*
X71165Y-54544D01*
X71193Y-54543D01*
X71227Y-54543D01*
X71262Y-54543D01*
X71296Y-54544D01*
X71326Y-54545D01*
X71347Y-54546D01*
X71356Y-54548D01*
X71357Y-54549D01*
X71360Y-54560D01*
X71365Y-54584D01*
X71372Y-54616D01*
X71379Y-54655D01*
X71380Y-54662D01*
X71387Y-54699D01*
X71394Y-54730D01*
X71398Y-54751D01*
X71401Y-54759D01*
X71404Y-54761D01*
X71419Y-54768D01*
X71444Y-54778D01*
X71476Y-54791D01*
X71548Y-54820D01*
X71636Y-54759D01*
X71644Y-54754D01*
X71676Y-54732D01*
X71702Y-54715D01*
X71720Y-54703D01*
X71728Y-54699D01*
X71728Y-54699D01*
X71737Y-54707D01*
X71755Y-54723D01*
X71779Y-54747D01*
X71806Y-54774D01*
X71827Y-54795D01*
X71851Y-54820D01*
X71867Y-54836D01*
X71875Y-54847D01*
X71878Y-54854D01*
X71877Y-54858D01*
X71872Y-54867D01*
X71859Y-54886D01*
X71841Y-54913D01*
X71819Y-54944D01*
X71801Y-54971D01*
X71782Y-55000D01*
X71770Y-55021D01*
X71765Y-55032D01*
X71766Y-55036D01*
X71773Y-55053D01*
X71783Y-55080D01*
X71796Y-55111D01*
X71827Y-55181D01*
X71873Y-55189D01*
X71901Y-55195D01*
X71940Y-55202D01*
X71977Y-55209D01*
X72035Y-55221D01*
X72037Y-55433D01*
X72028Y-55437D01*
X72019Y-55440D01*
X71998Y-55444D01*
X71967Y-55450D01*
X71931Y-55457D01*
X71900Y-55463D01*
X71869Y-55469D01*
X71847Y-55473D01*
X71837Y-55475D01*
X71834Y-55479D01*
X71826Y-55494D01*
X71815Y-55518D01*
X71803Y-55547D01*
X71791Y-55576D01*
X71780Y-55604D01*
X71772Y-55625D01*
X71769Y-55636D01*
X71773Y-55644D01*
X71785Y-55662D01*
X71802Y-55688D01*
X71823Y-55719D01*
X71845Y-55750D01*
X71862Y-55777D01*
X71875Y-55796D01*
X71880Y-55804D01*
X71877Y-55810D01*
X71865Y-55825D01*
X71842Y-55849D01*
X71807Y-55884D01*
X71801Y-55889D01*
X71774Y-55916D01*
X71750Y-55937D01*
X71734Y-55952D01*
X71727Y-55957D01*
X71727Y-55957D01*
G37*
M02*
